<svg width="124" height="83" viewBox="0 0 124 83" fill="none" xmlns="http://www.w3.org/2000/svg">
<g style="mix-blend-mode:multiply" opacity="0.5">
<mask id="mask0_151_121" style="mask-type:luminance" maskUnits="userSpaceOnUse" x="29" y="69" width="95" height="14">
<path d="M76.7006 83C102.823 83 124 79.8701 124 76.0092C124 72.1483 102.823 69.0184 76.7006 69.0184C50.5778 69.0184 29.4011 72.1483 29.4011 76.0092C29.4011 79.8701 50.5778 83 76.7006 83Z" fill="white"/>
</mask>
<g mask="url(#mask0_151_121)">
<path d="M124 69.0184H29.3972V83H124V69.0184Z" fill="white"/>
<path d="M76.6126 82.0199C100.002 81.8886 118.948 79.2254 118.931 76.0714C118.913 72.9174 99.9383 70.4669 76.5491 70.5982C53.1599 70.7294 34.2134 73.3927 34.231 76.5467C34.2485 79.7007 53.2234 82.1511 76.6126 82.0199Z" fill="white"/>
<path d="M76.4701 81.9975C99.7679 81.8668 118.64 79.2126 118.623 76.0693C118.605 72.9259 99.7047 70.4837 76.4068 70.6145C53.109 70.7452 34.2366 73.3994 34.254 76.5427C34.2715 79.6861 53.1723 82.1282 76.4701 81.9975Z" fill="white"/>
<path d="M76.3237 81.9751C99.5301 81.8449 118.329 79.2015 118.311 76.071C118.294 72.9405 99.4671 70.5082 76.2607 70.6385C53.0542 70.7687 34.2558 73.4121 34.2732 76.5426C34.2906 79.6731 53.1172 82.1053 76.3237 81.9751Z" fill="white"/>
<path d="M76.5388 81.6201C99.6542 81.3878 118.368 78.6721 118.337 75.5544C118.306 72.4366 99.5418 70.0974 76.4264 70.3297C53.311 70.5619 34.5974 73.2777 34.6285 76.3954C34.6595 79.5132 53.4234 81.8523 76.5388 81.6201Z" fill="white"/>
<path d="M76.0349 81.9342C99.0586 81.805 117.709 79.1832 117.692 76.0783C117.674 72.9734 98.9961 70.5611 75.9724 70.6903C52.9488 70.8195 34.2984 73.4413 34.3157 76.5462C34.3329 79.6511 53.0113 82.0634 76.0349 81.9342Z" fill="white"/>
<path d="M75.8886 81.9157C98.8187 81.787 117.393 79.1743 117.376 76.0801C117.359 72.9859 98.7564 70.5818 75.8263 70.7105C52.8962 70.8392 34.3216 73.4519 34.3388 76.5461C34.356 79.6403 52.9585 82.0444 75.8886 81.9157Z" fill="#FEFFFF"/>
<path d="M75.7421 81.8895C98.5809 81.7613 117.081 79.1594 117.064 76.078C117.047 72.9966 98.5189 70.6025 75.6801 70.7307C52.8414 70.8588 34.3408 73.4607 34.3579 76.5421C34.375 79.6235 52.9034 82.0176 75.7421 81.8895Z" fill="#FEFFFF"/>
<path d="M75.5996 81.8671C98.347 81.7394 116.774 79.1483 116.756 76.0797C116.739 73.0111 98.2852 70.627 75.5378 70.7547C52.7905 70.8823 34.3639 73.4734 34.381 76.542C34.398 79.6106 52.8522 81.9947 75.5996 81.8671Z" fill="#FEFEFF"/>
<path d="M75.4534 81.8485C98.1094 81.7214 116.462 79.1411 116.445 76.0853C116.428 73.0296 98.0479 70.6554 75.3919 70.7826C52.7359 70.9097 34.3834 73.49 34.4004 76.5457C34.4174 79.6015 52.7974 81.9757 75.4534 81.8485Z" fill="#FEFEFF"/>
<path d="M75.6678 81.4935C98.2327 81.2668 116.501 78.6161 116.47 75.5731C116.44 72.5301 98.123 70.247 75.5581 70.4737C52.9932 70.7005 34.7252 73.3511 34.7555 76.3941C34.7858 79.4371 53.1029 81.7202 75.6678 81.4935Z" fill="#FEFEFF"/>
<path d="M75.1645 81.8037C97.6377 81.6776 115.842 79.1172 115.825 76.0849C115.808 73.0526 97.5766 70.6967 75.1034 70.8228C52.6302 70.9489 34.4258 73.5093 34.4426 76.5416C34.4595 79.5739 52.6913 81.9299 75.1645 81.8037Z" fill="#FDFEFF"/>
<path d="M75.0183 81.7814C97.4001 81.6558 115.53 79.1062 115.514 76.0867C115.497 73.0672 97.3393 70.7213 74.9575 70.8469C52.5757 70.9725 34.4452 73.5221 34.462 76.5415C34.4788 79.561 52.6365 81.907 75.0183 81.7814Z" fill="#FDFEFE"/>
<path d="M74.8719 81.759C97.1602 81.6339 115.215 79.0951 115.198 76.0885C115.181 73.0818 97.0996 70.7458 74.8114 70.8709C52.5231 70.996 34.4684 73.5347 34.4851 76.5414C34.5018 79.5481 52.5836 81.8841 74.8719 81.759Z" fill="#FDFEFE"/>
<path d="M74.7293 81.7405C96.9262 81.6159 114.907 79.0879 114.89 76.0941C114.874 73.1002 96.866 70.7742 74.6691 70.8988C52.4722 71.0233 34.4915 73.5513 34.5082 76.5452C34.5248 79.539 52.5324 81.865 74.7293 81.7405Z" fill="#FDFEFE"/>
<path d="M74.5829 81.7181C96.6884 81.594 114.595 79.0769 114.578 76.0958C114.562 73.1148 96.6284 70.7987 74.5229 70.9228C52.4174 71.0468 34.5107 73.564 34.5273 76.545C34.5439 79.5261 52.4774 81.8421 74.5829 81.7181Z" fill="#FCFDFE"/>
<path d="M74.4365 81.6957C96.4506 81.5722 114.283 79.0641 114.267 76.0937C114.25 73.1233 96.3908 70.8155 74.3767 70.939C52.3626 71.0626 34.53 73.5707 34.5465 76.541C34.563 79.5114 52.4224 81.8192 74.4365 81.6957Z" fill="#FCFDFE"/>
<path d="M74.2903 81.6733C96.213 81.5503 113.972 79.053 113.955 76.0954C113.939 73.1379 96.1535 70.84 74.2307 70.9631C52.308 71.0861 34.5495 73.5834 34.5659 76.5409C34.5823 79.4985 52.3676 81.7963 74.2903 81.6733Z" fill="#FCFDFE"/>
<path d="M74.1478 81.6509C95.9791 81.5284 113.664 79.0419 113.647 76.0972C113.631 73.1524 95.9198 70.8646 74.0885 70.9871C52.2571 71.1096 34.5726 73.5961 34.589 76.5408C34.6053 79.4856 52.3164 81.7734 74.1478 81.6509Z" fill="#FBFDFE"/>
<path d="M74.0014 81.6324C95.7392 81.5104 113.348 79.0347 113.332 76.1028C113.315 73.1709 95.6802 70.893 73.9423 71.0149C52.2045 71.1369 34.5957 73.6126 34.612 76.5445C34.6283 79.4765 52.2635 81.7544 74.0014 81.6324Z" fill="#FBFDFE"/>
<path d="M73.8549 81.61C95.5014 81.4886 113.036 79.0237 113.02 76.1046C113.004 73.1854 95.4426 70.9175 73.7962 71.039C52.1497 71.1604 34.615 73.6253 34.6312 76.5444C34.6474 79.4636 52.2085 81.7315 73.8549 81.61Z" fill="#FBFCFE"/>
<path d="M73.7124 81.5876C95.2675 81.4667 112.728 79.0109 112.712 76.1024C112.696 73.194 95.2089 70.9343 73.6539 71.0552C52.0988 71.1762 34.6381 73.632 34.6543 76.5405C34.6704 79.4489 52.1574 81.7086 73.7124 81.5876Z" fill="#FAFCFE"/>
<path d="M73.5662 81.5652C95.0299 81.4448 112.417 78.9998 112.4 76.1042C112.384 73.2085 94.9716 70.9588 73.5079 71.0792C52.0443 71.1997 34.6576 73.6447 34.6737 76.5403C34.6898 79.436 52.1026 81.6857 73.5662 81.5652Z" fill="#FAFCFD"/>
<path d="M73.4198 81.5429C94.792 81.4229 112.105 78.9887 112.089 76.1059C112.073 73.2231 94.734 70.9833 73.3617 71.1033C51.9895 71.2232 34.6768 73.6574 34.6928 76.5402C34.7089 79.4231 52.0475 81.6628 73.4198 81.5429Z" fill="#FAFCFD"/>
<path d="M73.2772 81.5205C94.5581 81.4011 111.797 78.9777 111.781 76.1076C111.765 73.2376 94.5004 71.0079 73.2195 71.1273C51.9386 71.2467 34.6999 73.6701 34.7159 76.5401C34.7319 79.4101 51.9964 81.6399 73.2772 81.5205Z" fill="#F9FCFD"/>
<path d="M73.4901 81.1751C94.6778 80.9622 111.831 78.4734 111.802 75.6161C111.774 72.7589 94.5749 70.6152 73.3872 70.8281C52.1995 71.041 35.0465 73.5298 35.0749 76.387C35.1034 79.2443 52.3024 81.388 73.4901 81.1751Z" fill="#F9FBFD"/>
<path d="M72.9847 81.4796C94.0807 81.3612 111.17 78.9577 111.154 76.1112C111.138 73.2647 94.0234 71.0531 72.9274 71.1715C51.8314 71.2898 34.7426 73.6934 34.7584 76.5399C34.7742 79.3864 51.8887 81.598 72.9847 81.4796Z" fill="#F8FBFD"/>
<path d="M72.8422 81.4572C93.8467 81.3393 110.862 78.9466 110.846 76.1129C110.83 73.2792 93.7897 71.0776 72.7851 71.1955C51.7805 71.3133 34.7657 73.706 34.7815 76.5397C34.7972 79.3734 51.8376 81.5751 72.8422 81.4572Z" fill="#F8FBFD"/>
<path d="M72.6957 81.4348C93.6089 81.3174 110.55 78.9355 110.534 76.1146C110.518 73.2937 93.5521 71.1021 72.6389 71.2195C51.7257 71.3368 34.7849 73.7187 34.8006 76.5396C34.8163 79.3605 51.7825 81.5522 72.6957 81.4348Z" fill="#F8FAFD"/>
<path d="M72.5493 81.4124C93.3711 81.2956 110.238 78.9245 110.222 76.1164C110.207 73.3083 93.3146 71.1266 72.4927 71.2435C51.6709 71.3603 34.8042 73.7314 34.8198 76.5395C34.8354 79.3476 51.7274 81.5293 72.5493 81.4124Z" fill="#F7FAFC"/>
<path d="M72.407 81.39C93.1374 81.2737 109.93 78.9134 109.915 76.1181C109.899 73.3229 93.0811 71.1512 72.3507 71.2675C51.6203 71.3838 34.8275 73.7441 34.8431 76.5394C34.8586 79.3347 51.6765 81.5064 72.407 81.39Z" fill="#F7FAFC"/>
<path d="M109.603 76.1136C109.603 78.8975 92.9018 81.2484 72.2749 81.3644C51.648 81.4804 34.8848 79.3229 34.8694 76.5582C34.854 73.7936 51.571 71.4196 72.1979 71.3036C92.8248 71.1876 109.588 73.3297 109.603 76.1136Z" fill="#F6FAFC"/>
<path d="M72.1142 81.3491C92.6597 81.2338 109.303 78.8934 109.287 76.1216C109.272 73.3499 92.6039 71.1964 72.0584 71.3117C51.5129 71.427 34.8699 73.7674 34.8853 76.5392C34.9007 79.3109 51.5687 81.4644 72.1142 81.3491Z" fill="#F6F9FC"/>
<path d="M71.9716 81.3267C92.4258 81.212 108.995 78.8823 108.979 76.1234C108.964 73.3644 92.3702 71.2209 71.9161 71.3357C51.462 71.4504 34.893 73.7801 34.9084 76.539C34.9237 79.298 51.5175 81.4415 71.9716 81.3267Z" fill="#F5F9FC"/>
<path d="M72.1837 80.9871C92.5467 80.7825 109.032 78.3904 109.005 75.6442C108.977 72.898 92.4478 70.8377 72.0847 71.0423C51.7216 71.2469 35.2363 73.6389 35.2636 76.3851C35.2909 79.1313 51.8206 81.1917 72.1837 80.9871Z" fill="#F5F9FC"/>
<path d="M71.679 81.282C91.9503 81.1682 108.371 78.8602 108.356 76.1269C108.341 73.3935 91.8953 71.2699 71.624 71.3837C51.3526 71.4974 34.9318 73.8055 34.9469 76.5388C34.9621 79.2721 51.4076 81.3957 71.679 81.282Z" fill="#F4F9FC"/>
<path d="M71.5326 81.2635C91.7126 81.1502 108.059 78.8513 108.044 76.1286C108.029 73.406 91.6577 71.2906 71.4778 71.4038C51.2978 71.5171 34.951 73.816 34.9661 76.5387C34.9813 79.2614 51.3526 81.3767 71.5326 81.2635Z" fill="#F4F8FB"/>
<path d="M71.39 81.2411C91.4786 81.1283 107.751 78.8402 107.736 76.1303C107.721 73.4205 91.4241 71.3151 71.3355 71.4278C51.2469 71.5406 34.9741 73.8287 34.9892 76.5386C35.0043 79.2484 51.3015 81.3538 71.39 81.2411Z" fill="#F3F8FB"/>
<path d="M71.2437 81.2187C91.2387 81.1065 107.436 78.8291 107.421 76.1321C107.406 73.4351 91.1844 71.3397 71.1894 71.4519C51.1943 71.5641 34.9973 73.8414 35.0123 76.5384C35.0272 79.2355 51.2486 81.3309 71.2437 81.2187Z" fill="#F3F8FB"/>
<path d="M71.4552 80.8784C91.3592 80.6784 107.473 78.3403 107.446 75.656C107.419 72.9718 91.2624 70.9579 71.3584 71.1579C51.4545 71.3578 35.3407 73.696 35.3675 76.3803C35.3942 79.0645 51.5512 81.0784 71.4552 80.8784Z" fill="#F2F7FB"/>
<path d="M70.955 81.1778C90.7673 81.0666 106.816 78.8091 106.801 76.1356C106.787 73.462 90.7134 71.3848 70.9012 71.496C51.0889 71.6072 35.0399 73.8647 35.0547 76.5382C35.0696 79.2118 51.1427 81.289 70.955 81.1778Z" fill="#F2F7FB"/>
<path d="M70.8085 81.1554C90.5294 81.0447 106.504 78.7981 106.49 76.1373C106.475 73.4766 90.4759 71.4094 70.755 71.52C51.0341 71.6307 35.0591 73.8774 35.0739 76.5381C35.0887 79.1988 51.0876 81.2661 70.8085 81.1554Z" fill="#F1F7FB"/>
<path d="M70.6621 81.133C90.2916 81.0229 106.193 78.787 106.178 76.1391C106.163 73.4912 90.2383 71.4339 70.6088 71.544C50.9793 71.6542 35.0783 73.8901 35.0931 76.538C35.1078 79.1859 51.0326 81.2432 70.6621 81.133Z" fill="#F1F6FA"/>
<path d="M70.8772 80.7992C90.4156 80.6029 106.233 78.3075 106.207 75.6724C106.181 73.0372 90.3207 71.0601 70.7822 71.2565C51.2438 71.4528 35.426 73.7481 35.4523 76.3833C35.4785 79.0184 51.3388 80.9955 70.8772 80.7992Z" fill="#F0F6FA"/>
<path d="M70.3734 81.0844C89.818 80.9752 105.569 78.761 105.555 76.1387C105.54 73.5164 89.7652 71.4791 70.3206 71.5882C50.876 71.6973 35.1249 73.9116 35.1394 76.5339C35.154 79.1561 50.9288 81.1935 70.3734 81.0844Z" fill="#F0F6FA"/>
<path d="M70.227 81.0697C89.5802 80.9611 105.257 78.756 105.243 76.1443C105.228 73.5327 89.5276 71.5036 70.1744 71.6122C50.8212 71.7208 35.1441 73.926 35.1586 76.5376C35.1731 79.1492 50.8738 81.1783 70.227 81.0697Z" fill="#EFF5FA"/>
<path d="M70.0845 81.0473C89.3463 80.9392 104.949 78.7449 104.935 76.1461C104.92 73.5473 89.294 71.5281 70.0321 71.6362C50.7703 71.7443 35.1672 73.9387 35.1817 76.5375C35.1961 79.1363 50.8226 81.1554 70.0845 81.0473Z" fill="#EEF5FA"/>
<path d="M69.938 81.025C89.1084 80.9174 104.638 78.7338 104.623 76.1478C104.609 73.5618 89.0564 71.5527 69.8859 71.6603C50.7155 71.7678 35.1865 73.9514 35.2008 76.5374C35.2152 79.1234 50.7676 81.1325 69.938 81.025Z" fill="#EEF5FA"/>
<path d="M69.7918 81.0026C88.8709 80.8955 104.326 78.7227 104.312 76.1495C104.297 73.5764 88.8191 71.5772 69.74 71.6843C50.661 71.7913 35.2059 73.9641 35.2202 76.5373C35.2345 79.1104 50.7128 81.1096 69.7918 81.0026Z" fill="#EDF4F9"/>
<path d="M69.6493 80.9763C88.6369 80.8697 104.018 78.7078 104.004 76.1474C103.989 73.587 88.5854 71.5978 69.5977 71.7044C50.6101 71.8109 35.2291 73.9729 35.2433 76.5333C35.2575 79.0936 50.6616 81.0828 69.6493 80.9763Z" fill="#EDF4F9"/>
<path d="M69.5029 80.9578C88.3991 80.8518 103.706 78.6989 103.692 76.1492C103.678 73.5995 88.3478 71.6185 69.4515 71.7246C50.5553 71.8306 35.2483 73.9835 35.2625 76.5332C35.2767 79.0829 50.6066 81.0638 69.5029 80.9578Z" fill="#ECF3F9"/>
<path d="M69.3565 80.9393C88.1592 80.8338 103.39 78.6917 103.376 76.1548C103.362 73.6179 88.1082 71.6469 69.3054 71.7524C50.5027 71.8579 35.2714 74 35.2855 76.5369C35.2996 79.0738 50.5537 81.0448 69.3565 80.9393Z" fill="#EBF3F9"/>
<path d="M69.2139 80.9169C87.9253 80.8119 103.082 78.6806 103.068 76.1565C103.054 73.6325 87.8745 71.6714 69.1631 71.7764C50.4518 71.8814 35.2946 74.0127 35.3086 76.5368C35.3226 79.0608 50.5026 81.0219 69.2139 80.9169Z" fill="#EBF3F9"/>
<path d="M69.0677 80.8945C87.6877 80.79 102.771 78.6696 102.757 76.1583C102.743 73.647 87.6372 71.696 69.0172 71.8005C50.3972 71.9049 35.3141 74.0254 35.328 76.5367C35.342 79.0479 50.4478 80.999 69.0677 80.8945Z" fill="#EAF2F8"/>
<path d="M69.2777 80.5639C87.8066 80.3777 102.807 78.2014 102.782 75.7029C102.757 73.2044 87.7166 71.3299 69.1877 71.5161C50.6588 71.7023 35.6583 73.8786 35.6832 76.3771C35.7081 78.8756 50.7489 80.7501 69.2777 80.5639Z" fill="#EAF2F8"/>
<path d="M69.1351 80.546C87.5726 80.3607 102.499 78.1938 102.474 75.706C102.449 73.2182 87.4829 71.3516 69.0454 71.5369C50.6079 71.7221 35.6814 73.8891 35.7062 76.3769C35.731 78.8647 50.6976 80.7312 69.1351 80.546Z" fill="#E9F2F8"/>
<path d="M68.6326 80.8312C86.9784 80.7283 101.839 78.6385 101.826 76.1635C101.812 73.6886 86.9286 71.7657 68.5828 71.8686C50.237 71.9716 35.3759 74.0614 35.3897 76.5363C35.4034 79.0113 50.2868 80.9342 68.6326 80.8312Z" fill="#E8F1F8"/>
<path d="M68.4862 80.8088C86.7385 80.7064 101.524 78.6274 101.51 76.1653C101.496 73.7031 86.6889 71.7902 68.4366 71.8926C50.1844 71.9951 35.399 74.0741 35.4127 76.5362C35.4264 78.9983 50.2339 80.9113 68.4862 80.8088Z" fill="#E8F1F7"/>
<path d="M68.3398 80.7826C86.5007 80.6807 101.212 78.6125 101.198 76.1632C101.185 73.7138 86.4514 71.8109 68.2905 71.9128C50.1295 72.0147 35.4183 74.0829 35.4319 76.5322C35.4455 78.9815 50.1789 80.8845 68.3398 80.7826Z" fill="#E7F0F7"/>
<path d="M68.1972 80.7602C86.2667 80.6588 100.904 78.6014 100.89 76.1649C100.877 73.7284 86.2177 71.8354 68.1482 71.9368C50.0787 72.0382 35.4414 74.0956 35.4549 76.5321C35.4685 78.9686 50.1277 80.8616 68.1972 80.7602Z" fill="#E6F0F7"/>
<path d="M68.0508 80.7417C86.0289 80.6408 100.592 78.5925 100.579 76.1666C100.565 73.7408 85.9801 71.8561 68.002 71.9569C50.0239 72.0578 35.4606 74.1061 35.4741 76.532C35.4876 78.9578 50.0727 80.8426 68.0508 80.7417Z" fill="#E6EFF7"/>
<path d="M100.272 76.1716C100.272 78.5843 85.798 80.622 67.9111 80.7226C50.0242 80.8231 35.5123 78.9517 35.5007 76.5389C35.4892 74.1262 49.9742 72.0885 67.8611 71.988C85.748 71.8874 100.26 73.7511 100.272 76.1716Z" fill="#E5EFF7"/>
<path d="M67.7621 80.7008C85.5574 80.6009 99.9726 78.5742 99.9593 76.174C99.9459 73.7738 85.5091 71.909 67.7138 72.0088C49.9184 72.1087 35.5032 74.1354 35.5166 76.5356C35.5299 78.9358 49.9667 80.8006 67.7621 80.7008Z" fill="#E4EFF6"/>
<path d="M67.6157 80.6745C85.3175 80.5752 99.6569 78.5593 99.6437 76.1719C99.6304 73.7845 85.2695 71.9297 67.5676 72.029C49.8658 72.1283 35.5264 74.1442 35.5397 76.5316C35.5529 78.919 49.9139 80.7739 67.6157 80.6745Z" fill="#E4EEF6"/>
<path d="M67.4692 80.6521C85.0797 80.5533 99.3451 78.5482 99.3319 76.1736C99.3187 73.799 85.0319 71.9542 67.4214 72.053C49.811 72.1518 35.5456 74.1569 35.5588 76.5315C35.572 78.9061 49.8588 80.751 67.4692 80.6521Z" fill="#E3EEF6"/>
<path d="M67.3267 80.6336C84.8458 80.5353 99.0372 78.5393 99.024 76.1754C99.0109 73.8114 84.7982 71.9748 67.2792 72.0731C49.7601 72.1714 35.5688 74.1675 35.5819 76.5314C35.595 78.8953 49.8077 80.7319 67.3267 80.6336Z" fill="#E2EDF6"/>
<path d="M67.1806 80.6151C84.6082 80.5173 98.7256 78.5321 98.7125 76.181C98.6994 73.8299 84.5609 72.0032 67.1332 72.101C49.7056 72.1988 35.5882 74.184 35.6013 76.5351C35.6144 78.8862 49.7529 80.7129 67.1806 80.6151Z" fill="#E1EDF6"/>
<path d="M67.0341 80.5927C84.3704 80.4954 98.4137 78.521 98.4007 76.1827C98.3877 73.8445 84.3233 72.0278 66.987 72.1251C49.6508 72.2223 35.6075 74.1968 35.6205 76.535C35.6335 78.8733 49.6978 80.69 67.0341 80.5927Z" fill="#E1ECF5"/>
<path d="M66.8916 80.5665C84.1365 80.4697 98.1057 78.5061 98.0928 76.1806C98.0799 73.8551 84.0896 72.0484 66.8448 72.1452C49.5999 72.242 35.6306 74.2056 35.6435 76.531C35.6564 78.8565 49.6467 80.6632 66.8916 80.5665Z" fill="#E0ECF5"/>
<path d="M97.7815 76.1716C97.7815 78.4915 83.9007 80.4248 66.7488 80.537C49.5969 80.6491 35.6815 78.8357 35.6699 76.5235C35.6584 74.2112 49.5508 72.2702 66.7026 72.1581C83.8545 72.046 97.77 73.8517 97.7815 76.1716Z" fill="#DFECF5"/>
<path d="M66.9538 80.2315C84.014 80.0601 97.8255 78.055 97.8026 75.7529C97.7797 73.4509 83.931 71.7237 66.8708 71.8951C49.8105 72.0665 35.999 74.0717 36.022 76.3737C36.0449 78.6757 49.8935 80.4029 66.9538 80.2315Z" fill="#DFEBF5"/>
<path d="M66.4565 80.5032C83.4251 80.408 97.1705 78.475 97.1578 76.1859C97.1451 73.8967 83.379 72.1181 66.4104 72.2134C49.4418 72.3086 35.6964 74.2415 35.7091 76.5307C35.7218 78.8199 49.4879 80.5984 66.4565 80.5032Z" fill="#DEEBF4"/>
<path d="M66.31 80.4808C83.1872 80.3861 96.8587 78.4639 96.846 76.1876C96.8334 73.9112 83.1414 72.1426 66.2642 72.2374C49.387 72.3321 35.7156 74.2542 35.7282 76.5305C35.7409 78.8069 49.4328 80.5755 66.31 80.4808Z" fill="#DDEAF4"/>
<path d="M66.1636 80.4584C82.9494 80.3642 96.5468 78.4529 96.5342 76.1893C96.5216 73.9258 82.9039 72.1672 66.118 72.2614C49.3322 72.3556 35.7348 74.2669 35.7474 76.5305C35.76 78.794 49.3778 80.5526 66.1636 80.4584Z" fill="#DCEAF4"/>
<path d="M66.0211 80.4399C82.7155 80.3462 96.2389 78.4439 96.2264 76.1911C96.2138 73.9382 82.6702 72.1878 65.9757 72.2815C49.2813 72.3752 35.758 74.2775 35.7705 76.5303C35.783 78.7832 49.3267 80.5336 66.0211 80.4399Z" fill="#DCE9F4"/>
<path d="M66.2291 80.1266C82.8324 79.9598 96.274 78.0086 96.2517 75.7685C96.2294 73.5284 82.7517 71.8477 66.1484 72.0145C49.5451 72.1814 36.1035 74.1325 36.1258 76.3726C36.1481 78.6127 49.6258 80.2934 66.2291 80.1266Z" fill="#DBE9F3"/>
<path d="M65.7285 80.3951C82.238 80.3025 95.6116 78.4218 95.5992 76.1946C95.5869 73.9673 82.1932 72.2369 65.6837 72.3296C49.1741 72.4222 35.8006 74.3028 35.8129 76.5301C35.8253 78.7573 49.219 80.4878 65.7285 80.3951Z" fill="#DAE8F3"/>
<path d="M95.2956 76.1909C95.2956 78.4065 82.0074 80.2779 65.5867 80.3707C49.166 80.4635 35.8509 78.7429 35.8355 76.5273C35.8201 74.3118 49.1237 72.4442 65.5444 72.3514C81.9651 72.2586 95.2802 73.9754 95.2956 76.1909Z" fill="#D9E8F3"/>
<path d="M65.4395 80.3503C81.7663 80.2587 94.9918 78.3997 94.9796 76.1981C94.9673 73.9964 81.722 72.2859 65.3952 72.3776C49.0685 72.4692 35.8429 74.3282 35.8552 76.5298C35.8674 78.7315 49.1128 80.442 65.4395 80.3503Z" fill="#D8E7F3"/>
<path d="M94.6684 76.1948C94.6684 78.3833 81.5303 80.2354 65.2943 80.3282C49.0583 80.421 35.8856 78.7197 35.874 76.5273C35.8625 74.335 49.016 72.4868 65.2481 72.3978C81.4803 72.3089 94.6684 74.0063 94.6684 76.1948Z" fill="#D8E7F2"/>
<path d="M65.1469 80.3095C81.2909 80.2189 94.3684 78.3797 94.3562 76.2016C94.3441 74.0234 81.2471 72.3312 65.1031 72.4217C48.9591 72.5123 35.8816 74.3515 35.8937 76.5296C35.9059 78.7078 49.003 80.4 65.1469 80.3095Z" fill="#D7E6F2"/>
<path d="M65.0044 80.287C81.057 80.197 94.0604 78.3686 94.0484 76.2033C94.0363 74.038 81.0134 72.3557 64.9608 72.4457C48.9082 72.5358 35.9048 74.3642 35.9168 76.5295C35.9288 78.6948 48.9518 80.3771 65.0044 80.287Z" fill="#D6E6F2"/>
<path d="M64.858 80.2647C80.8171 80.1751 93.7447 78.3576 93.7328 76.2051C93.7208 74.0526 80.7737 72.3802 64.8147 72.4698C48.8556 72.5593 35.9279 74.3769 35.9399 76.5294C35.9518 78.6819 48.8989 80.3542 64.858 80.2647Z" fill="#D5E5F2"/>
<path d="M64.7118 80.2423C80.5795 80.1532 93.4331 78.3465 93.4212 76.2068C93.4093 74.0671 80.5364 72.4047 64.6687 72.4938C48.801 72.5828 35.9474 74.3896 35.9593 76.5293C35.9712 78.6689 48.8441 80.3313 64.7118 80.2423Z" fill="#D4E5F1"/>
<path d="M64.5693 80.2238C80.3456 80.1352 93.1252 78.3376 93.1134 76.2085C93.1015 74.0795 80.3027 72.4254 64.5264 72.5139C48.7501 72.6025 35.9705 74.4001 35.9824 76.5291C35.9942 78.6582 48.793 80.3123 64.5693 80.2238Z" fill="#D4E4F1"/>
<path d="M92.8056 76.2064C92.8056 78.3214 80.1062 80.1078 64.4282 80.1967C48.7502 80.2856 36.0162 78.6501 36.0046 76.5273C35.9931 74.4046 48.704 72.6221 64.382 72.5331C80.06 72.4442 92.794 74.0875 92.8056 76.2064Z" fill="#D3E4F1"/>
<path d="M92.494 76.2064C92.494 78.3098 79.8754 80.073 64.2821 80.1735C48.6888 80.2741 36.0394 78.6269 36.0278 76.5273C36.0163 74.4278 48.6464 72.6608 64.2397 72.5564C79.8331 72.452 92.4824 74.103 92.494 76.2064Z" fill="#D2E3F0"/>
<path d="M64.1339 80.1566C79.636 80.0696 92.1935 78.3043 92.1819 76.2138C92.1703 74.1232 79.5939 72.499 64.0918 72.586C48.5897 72.6729 36.0321 74.4382 36.0437 76.5288C36.0554 78.6194 48.6317 80.2436 64.1339 80.1566Z" fill="#D1E3F0"/>
<path d="M63.9877 80.1342C79.3984 80.0477 91.8819 78.2933 91.8704 76.2155C91.8588 74.1377 79.3566 72.5235 63.9458 72.61C48.5351 72.6964 36.0516 74.4509 36.0631 76.5287C36.0747 78.6064 48.5769 80.2207 63.9877 80.1342Z" fill="#D0E2F0"/>
<path d="M63.8413 80.1157C79.1585 80.0298 91.5663 78.2844 91.5548 76.2173C91.5433 74.1502 79.1169 72.5442 63.7997 72.6301C48.4825 72.7161 36.0747 74.4615 36.0862 76.5286C36.0977 78.5956 48.5241 80.2017 63.8413 80.1157Z" fill="#CFE2F0"/>
<path d="M63.6988 80.0933C78.9246 80.0079 91.2583 78.2733 91.2469 76.219C91.2355 74.1647 78.8833 72.5687 63.6574 72.6541C48.4316 72.7396 36.0979 74.4742 36.1093 76.5284C36.1207 78.5827 48.473 80.1788 63.6988 80.0933Z" fill="#CEE1EF"/>
<path d="M63.9053 79.7865C79.04 79.6344 91.2926 77.8562 91.2723 75.8147C91.252 73.7732 78.9664 72.2415 63.8317 72.3936C48.6971 72.5456 36.4444 74.3239 36.4648 76.3654C36.4851 78.4069 48.7706 79.9385 63.9053 79.7865Z" fill="#CEE1EF"/>
<path d="M63.7587 79.7686C78.802 79.6174 90.9806 77.8503 90.9604 75.8217C90.9402 73.793 78.7288 72.2709 63.6855 72.4221C48.6423 72.5732 36.4636 74.3403 36.4838 76.369C36.504 78.3977 48.7154 79.9197 63.7587 79.7686Z" fill="#CDE0EF"/>
<path d="M63.2636 80.0262C78.2153 79.9422 90.3269 78.2401 90.3157 76.2242C90.3045 74.2084 78.1747 72.6423 63.223 72.7262C48.2714 72.8101 36.1597 74.5122 36.1709 76.5281C36.1821 78.5439 48.3119 80.1101 63.2636 80.0262Z" fill="#CCE0EF"/>
<path d="M63.1172 80.0076C77.9775 79.9242 90.0151 78.2311 90.0039 76.226C89.9928 74.2208 77.9371 72.6629 63.0768 72.7463C48.2166 72.8297 36.179 74.5228 36.1901 76.528C36.2012 78.5331 48.2569 80.091 63.1172 80.0076Z" fill="#CBDFEE"/>
<path d="M62.9708 79.9853C77.7376 79.9024 89.6994 78.2201 89.6883 76.2278C89.6773 74.2354 77.6975 72.6875 62.9307 72.7703C48.1639 72.8532 36.2021 74.5355 36.2132 76.5278C36.2242 78.5202 48.204 80.0681 62.9708 79.9853Z" fill="#CADFEE"/>
<path d="M62.8246 79.959C77.5 79.8767 89.3878 78.2052 89.3768 76.2256C89.3658 74.2461 77.4601 72.7081 62.7848 72.7905C48.1094 72.8728 36.2216 74.5443 36.2326 76.5239C36.2436 78.5034 48.1492 80.0414 62.8246 79.959Z" fill="#C9DEEE"/>
<path d="M63.0341 79.6599C77.6183 79.5133 89.4253 77.8002 89.4057 75.8334C89.3861 73.8667 77.5474 72.3911 62.9632 72.5376C48.379 72.6842 36.572 74.3973 36.5916 76.3641C36.6112 78.3308 48.4499 79.8064 63.0341 79.6599Z" fill="#C8DEED"/>
<path d="M62.5356 79.9181C77.0282 79.8368 88.768 78.1869 88.7571 76.233C88.7463 74.2791 76.9889 72.761 62.4963 72.8424C48.0037 72.9237 36.2639 74.5736 36.2748 76.5275C36.2857 78.4814 48.043 79.9994 62.5356 79.9181Z" fill="#C7DDED"/>
<path d="M62.3892 79.8996C76.7904 79.8188 88.4561 78.178 88.4453 76.2347C88.4345 74.2915 76.7513 72.7817 62.3501 72.8625C47.9489 72.9433 36.2832 74.5842 36.294 76.5274C36.3048 78.4706 47.988 79.9804 62.3892 79.8996Z" fill="#C6DCED"/>
<path d="M62.5986 79.6024C76.9087 79.4586 88.4937 77.7771 88.4744 75.8467C88.4552 73.9162 76.8391 72.4678 62.529 72.6116C48.219 72.7554 36.634 74.4369 36.6532 76.3673C36.6724 78.2978 48.2886 79.7462 62.5986 79.6024Z" fill="#C6DCED"/>
<path d="M87.8261 76.2335C87.8261 78.1668 76.3235 79.7675 62.104 79.8487C47.8846 79.9299 36.3512 78.4413 36.3435 76.5235C36.3358 74.6056 47.8499 72.9855 62.0656 72.9043C76.2812 72.8231 87.8184 74.3156 87.8261 76.2335Z" fill="#C5DBEC"/>
<path d="M61.9541 79.8286C76.079 79.7493 87.5209 78.1409 87.5103 76.2361C87.4998 74.3313 76.0407 72.8514 61.9158 72.9307C47.7908 73.01 36.3489 74.6184 36.3595 76.5232C36.3701 78.4279 47.8292 79.9078 61.9541 79.8286Z" fill="#C4DBEC"/>
<path d="M87.2063 76.2335C87.2063 78.1281 75.8461 79.7134 61.8075 79.8062C47.7689 79.899 36.3856 78.4142 36.3779 76.5235C36.3702 74.6327 47.7343 73.0435 61.7767 72.9507C75.8192 72.858 87.1948 74.3427 87.2063 76.2335Z" fill="#C3DAEC"/>
<path d="M61.6652 79.7915C75.6073 79.7133 86.9011 78.1247 86.8907 76.2434C86.8802 74.3621 75.5694 72.9005 61.6273 72.9787C47.6851 73.0569 36.3913 74.6455 36.4017 76.5268C36.4122 78.4081 47.723 79.8697 61.6652 79.7915Z" fill="#C2DAEB"/>
<path d="M61.8704 79.4937C75.7213 79.3545 86.9347 77.727 86.9161 75.8584C86.8975 73.9899 75.654 72.588 61.803 72.7272C47.9521 72.8663 36.7387 74.4939 36.7573 76.3624C36.7759 78.2309 48.0194 79.6329 61.8704 79.4937Z" fill="#C1D9EB"/>
<path d="M86.2712 76.2412C86.2712 78.0972 75.1381 79.6631 61.3804 79.7211C47.6227 79.7791 36.4588 78.3601 36.4473 76.5041C36.4357 74.6482 47.5804 73.0783 61.3419 73.001C75.1035 72.9237 86.2635 74.3852 86.2712 76.2412Z" fill="#C0D8EB"/>
<path d="M61.23 79.7205C74.8979 79.6438 85.9697 78.0877 85.9595 76.2448C85.9492 74.4019 74.8608 72.9702 61.1929 73.0469C47.5249 73.1236 36.4531 74.6797 36.4634 76.5226C36.4736 78.3654 47.562 79.7972 61.23 79.7205Z" fill="#BFD8EA"/>
<path d="M61.0836 79.7059C74.6581 79.6297 85.6541 78.0826 85.6439 76.2505C85.6337 74.4183 74.6212 72.9947 61.0467 73.0709C47.4723 73.1471 36.4763 74.6941 36.4865 76.5263C36.4966 78.3585 47.5092 79.782 61.0836 79.7059Z" fill="#BED7EA"/>
<path d="M60.9411 79.6835C74.4242 79.6078 85.3461 78.0716 85.336 76.2522C85.3259 74.4328 74.3875 73.0192 60.9045 73.0949C47.4214 73.1706 36.4994 74.7068 36.5095 76.5262C36.5196 78.3456 47.458 79.7591 60.9411 79.6835Z" fill="#BDD7EA"/>
<path d="M85.0476 76.2451C85.0476 78.0546 74.2108 79.578 60.8033 79.6554C47.3958 79.7327 36.559 78.3291 36.5359 76.5235C36.5128 74.7178 47.3727 73.1905 60.7802 73.1131C74.1877 73.0358 85.0168 74.4394 85.0476 76.2451Z" fill="#BCD6E9"/>
<path d="M60.6484 79.6348C73.9487 79.5602 84.7227 78.0455 84.7127 76.2518C84.7027 74.458 73.9126 73.0644 60.6123 73.1391C47.312 73.2137 36.5381 74.7283 36.5481 76.5221C36.5581 78.3158 47.3481 79.7094 60.6484 79.6348Z" fill="#BBD5E9"/>
<path d="M60.5059 79.6124C73.7148 79.5383 84.4147 78.0345 84.4048 76.2536C84.3949 74.4726 73.6789 73.089 60.4701 73.1631C47.2612 73.2372 36.5612 74.741 36.5711 76.522C36.581 78.3029 47.297 79.6866 60.5059 79.6124Z" fill="#BAD5E9"/>
<path d="M60.3595 79.5978C73.477 79.5242 84.1029 78.0294 84.093 76.2591C84.0832 74.4889 73.4414 73.1135 60.3239 73.1871C47.2064 73.2607 36.5805 74.7555 36.5903 76.5257C36.6002 78.296 47.242 79.6714 60.3595 79.5978Z" fill="#B9D4E9"/>
<path d="M60.2134 79.5754C73.2373 79.5023 83.7875 78.0184 83.7777 76.2609C83.7679 74.5035 73.202 73.138 60.178 73.2111C47.154 73.2842 36.6039 74.7681 36.6136 76.5256C36.6234 78.283 47.1894 79.6485 60.2134 79.5754Z" fill="#B8D4E8"/>
<path d="M60.0669 79.5492C72.9995 79.4766 83.4756 78.0034 83.4659 76.2588C83.4562 74.5142 72.9644 73.1587 60.0318 73.2313C47.0992 73.3038 36.6231 74.777 36.6328 76.5216C36.6425 78.2663 47.1343 79.6217 60.0669 79.5492Z" fill="#B7D3E8"/>
<path d="M59.9244 79.5268C72.7656 79.4547 83.1676 77.9924 83.158 76.2605C83.1484 74.5287 72.7307 73.1832 59.8895 73.2553C47.0483 73.3273 36.6462 74.7897 36.6559 76.5215C36.6655 78.2533 47.0831 79.5988 59.9244 79.5268Z" fill="#B6D2E8"/>
<path d="M59.7779 79.5044C72.5278 79.4328 82.8558 77.9813 82.8462 76.2623C82.8367 74.5433 72.4931 73.2077 59.7433 73.2793C46.9935 73.3508 36.6655 74.8024 36.675 76.5214C36.6846 78.2404 47.0281 79.5759 59.7779 79.5044Z" fill="#B5D2E7"/>
<path d="M59.6318 79.4897C72.2902 79.4187 82.5442 77.9762 82.5347 76.2679C82.5252 74.5596 72.2558 73.2323 59.5974 73.3033C46.9389 73.3743 36.6849 74.8168 36.6944 76.5251C36.7039 78.2335 46.9733 79.5608 59.6318 79.4897Z" fill="#B4D1E7"/>
<path d="M59.4892 79.4673C72.0563 79.3968 82.2362 77.9651 82.2268 76.2696C82.2174 74.5741 72.0221 73.2568 59.4551 73.3273C46.888 73.3978 36.7081 74.8295 36.7175 76.525C36.7269 78.2205 46.9222 79.5378 59.4892 79.4673Z" fill="#B3D1E7"/>
<path d="M59.3428 79.4411C71.8164 79.3711 81.9206 77.9502 81.9112 76.2675C81.9019 74.5848 71.7825 73.2774 59.309 73.3474C46.8354 73.4174 36.7312 74.8383 36.7406 76.521C36.7499 78.2037 46.8693 79.5111 59.3428 79.4411Z" fill="#B2D0E6"/>
<path d="M81.6072 76.2644C81.6072 77.9348 71.6016 79.3577 59.2024 79.4157C46.8032 79.4737 36.7745 78.19 36.7629 76.5196C36.7514 74.8492 46.7685 73.4263 59.1678 73.3683C71.567 73.3103 81.5841 74.5941 81.6072 76.2644Z" fill="#B1CFE6"/>
<path d="M81.2954 76.2683C81.2954 77.9232 71.3475 79.3267 59.056 79.3963C46.7645 79.4659 36.7936 78.1784 36.7859 76.5196C36.7782 74.8608 46.7299 73.4611 59.0214 73.3915C71.3129 73.322 81.2838 74.625 81.2954 76.2683Z" fill="#B0CFE6"/>
<path d="M58.9077 79.3778C71.1071 79.3093 80.9892 77.9192 80.98 76.2728C80.9709 74.6264 71.0739 73.3472 58.8746 73.4156C46.6752 73.4841 36.7931 74.8743 36.8022 76.5207C36.8114 78.1671 46.7083 79.4463 58.9077 79.3778Z" fill="#AFCEE5"/>
<path d="M80.6719 76.2721C80.6719 77.9038 70.8741 79.2842 58.7674 79.3654C46.6606 79.4466 36.832 78.1668 36.832 76.5351C36.832 74.9034 46.6298 73.523 58.7366 73.4418C70.8433 73.3606 80.6642 74.625 80.6719 76.2721Z" fill="#AECDE5"/>
<path d="M58.6187 79.333C70.6353 79.2656 80.3694 77.897 80.3604 76.2762C80.3514 74.6555 70.6027 73.3962 58.5861 73.4637C46.5695 73.5311 36.8354 74.8997 36.8444 76.5204C36.8534 78.1412 46.6021 79.4005 58.6187 79.333Z" fill="#ADCDE5"/>
<path d="M58.4723 79.3106C70.3975 79.2437 80.0575 77.8859 80.0486 76.278C80.0396 74.67 70.3651 73.4207 58.4399 73.4877C46.5147 73.5546 36.8547 74.9123 36.8636 76.5203C36.8725 78.1283 46.5471 79.3776 58.4723 79.3106Z" fill="#ACCCE4"/>
<path d="M58.3259 79.2883C70.1576 79.2219 79.7419 77.8749 79.733 76.2797C79.7241 74.6846 70.1255 73.4453 58.2938 73.5117C46.4621 73.5781 36.8778 74.925 36.8867 76.5202C36.8955 78.1153 46.4942 79.3547 58.3259 79.2883Z" fill="#ABCCE4"/>
<path d="M79.4291 76.276C79.4291 77.8613 69.9276 79.1991 58.1865 79.2649C46.4453 79.3306 36.9207 78.1049 36.9092 76.5196C36.8976 74.9343 46.4145 73.5964 58.1518 73.5307C69.8891 73.465 79.4175 74.6946 79.4291 76.276Z" fill="#AACBE4"/>
<path d="M79.1174 76.2799C79.1174 77.8497 69.6891 79.1759 58.0402 79.2417C46.3914 79.3074 36.9438 78.1049 36.9438 76.5196C36.9438 74.9343 46.3722 73.6197 58.021 73.5539C69.6698 73.4882 79.1097 74.7062 79.1174 76.2799Z" fill="#A9CAE3"/>
<path d="M78.8056 76.2799C78.8056 77.8265 69.4542 79.1566 57.8939 79.2223C46.3336 79.2881 36.963 78.0624 36.9514 76.5157C36.9399 74.9691 46.3067 73.6429 57.8631 73.5771C69.4196 73.5114 78.7979 74.7217 78.8056 76.2799Z" fill="#A8CAE3"/>
<path d="M57.7482 79.2026C69.2143 79.1382 78.5025 77.8328 78.4939 76.2867C78.4853 74.7407 69.1832 73.5395 57.7171 73.6039C46.2509 73.6682 36.9628 74.9737 36.9714 76.5197C36.98 78.0658 46.2821 79.2669 57.7482 79.2026Z" fill="#A7C9E3"/>
<path d="M57.602 79.1802C68.9767 79.1164 78.1909 77.8217 78.1824 76.2884C78.1738 74.7552 68.9459 73.564 57.5711 73.6279C46.1964 73.6917 36.9823 74.9864 36.9908 76.5196C36.9993 78.0528 46.2273 79.244 57.602 79.1802Z" fill="#A6C8E2"/>
<path d="M77.8743 76.2837C77.8743 77.8072 68.7423 79.0947 57.459 79.1566C46.1758 79.2185 37.0245 78.0392 37.0169 76.5157C37.0092 74.9923 46.145 73.7086 57.4129 73.6467C68.6807 73.5849 77.8627 74.7642 77.8743 76.2837Z" fill="#A4C8E2"/>
<path d="M57.3092 79.1393C68.499 79.0765 77.5634 77.8017 77.555 76.292C77.5466 74.7822 68.4687 73.6092 57.2788 73.672C46.089 73.7348 37.0246 75.0096 37.033 76.5194C37.0414 78.0291 46.1194 79.2021 57.3092 79.1393Z" fill="#A3C7E2"/>
<path d="M57.1667 79.1169C68.2651 79.0546 77.2554 77.7906 77.2471 76.2937C77.2388 74.7968 68.235 73.6338 57.1365 73.696C46.0381 73.7583 37.0478 75.0223 37.0561 76.5192C37.0644 78.0162 46.0682 79.1792 57.1667 79.1169Z" fill="#A2C6E1"/>
<path d="M57.0205 79.0945C68.0275 79.0328 76.9438 77.7796 76.9356 76.2955C76.9273 74.8113 67.9977 73.6583 56.9906 73.7201C45.9835 73.7818 37.0672 75.035 37.0755 76.5191C37.0837 78.0033 46.0134 79.1563 57.0205 79.0945Z" fill="#A1C6E1"/>
<path d="M76.6275 76.2915C76.6275 77.7646 67.7764 78.9981 56.878 79.0715C45.9796 79.145 37.1093 77.9889 37.1016 76.5157C37.0939 75.0425 45.9527 73.8091 56.8511 73.7395C67.7494 73.6699 76.6198 74.8183 76.6275 76.2915Z" fill="#A0C5E0"/>
<path d="M76.3157 76.2953C76.3157 77.753 67.5569 79.0019 56.7355 79.0483C45.9141 79.0947 37.1284 77.9773 37.1092 76.5157C37.0899 75.0542 45.8679 73.8091 56.6932 73.7627C67.5185 73.7163 76.308 74.8338 76.3157 76.2953Z" fill="#9FC4E0"/>
<path d="M76.004 76.2953C76.004 77.7414 67.3222 78.9672 56.5893 79.0252C45.8564 79.0831 37.1515 77.9618 37.1438 76.5157C37.1361 75.0696 45.8294 73.8517 56.57 73.7859C67.3106 73.7202 75.9963 74.8492 76.004 76.2953Z" fill="#9EC4E0"/>
<path d="M75.6961 76.2953C75.6961 77.7337 67.0836 78.944 56.4546 79.002C45.8255 79.0599 37.1823 77.9464 37.1746 76.5119C37.1669 75.0774 45.7871 73.8633 56.4161 73.8053C67.0451 73.7473 75.6884 74.8608 75.6961 76.2953Z" fill="#9DC3DF"/>
<path d="M56.2964 78.9865C66.8444 78.9273 75.3888 77.7264 75.3809 76.3042C75.373 74.882 66.8158 73.7771 56.2678 73.8362C45.7198 73.8954 37.1754 75.0963 37.1833 76.5185C37.1912 77.9407 45.7484 79.0456 56.2964 78.9865Z" fill="#9CC2DF"/>
<path d="M75.0726 76.2992C75.0726 77.7105 66.6064 78.9014 56.1544 78.9633C45.7024 79.0252 37.213 77.927 37.2053 76.5157C37.1976 75.1044 45.6716 73.9135 56.1236 73.8555C66.5756 73.7975 75.0649 74.8918 75.0726 76.2992Z" fill="#9AC2DF"/>
<path d="M56.0036 78.9417C66.3688 78.8835 74.7651 77.7025 74.7574 76.3038C74.7496 74.9051 66.3406 73.8184 55.9754 73.8766C45.6102 73.9347 37.2138 75.1157 37.2216 76.5144C37.2294 77.9131 45.6383 78.9999 56.0036 78.9417Z" fill="#99C1DE"/>
<path d="M55.861 78.9193C66.1348 78.8616 74.4572 77.6914 74.4495 76.3055C74.4418 74.9196 66.1069 73.8429 55.8331 73.9006C45.5593 73.9582 37.237 75.1284 37.2447 76.5143C37.2524 77.9002 45.5872 78.977 55.861 78.9193Z" fill="#98C0DE"/>
<path d="M74.1375 76.3069C74.1375 77.6796 65.8983 78.8395 55.7195 78.8975C45.5408 78.9555 37.2785 77.8884 37.2708 76.5157C37.2631 75.1431 45.51 73.9792 55.6887 73.9251C65.8675 73.871 74.1298 74.9304 74.1375 76.3069Z" fill="#97BFDE"/>
<path d="M73.8297 76.3069C73.8297 77.668 65.6636 78.8163 55.5733 78.8743C45.4831 78.9323 37.2977 77.8768 37.29 76.5157C37.2823 75.1547 45.4561 74.0025 55.5464 73.9483C65.6366 73.8942 73.822 74.9459 73.8297 76.3069Z" fill="#96BFDD"/>
<path d="M73.5027 76.3108C73.5027 77.6564 65.4212 78.797 55.4156 78.855C45.41 78.913 37.3286 77.8613 37.3286 76.5157C37.3286 75.1702 45.41 74.0257 55.4156 73.9715C65.4212 73.9174 73.5027 74.9614 73.5027 76.3108Z" fill="#95BEDD"/>
<path d="M55.2795 78.8336C65.1856 78.7781 73.2101 77.6493 73.2027 76.3125C73.1953 74.9758 65.1587 73.9372 55.2526 73.9928C45.3464 74.0483 37.3219 75.1771 37.3294 76.5139C37.3368 77.8506 45.3733 78.8892 55.2795 78.8336Z" fill="#94BDDC"/>
<path d="M72.8945 76.3108C72.8945 77.637 64.9516 78.7545 55.1384 78.8086C45.3253 78.8627 37.3593 77.8381 37.3516 76.5157C37.3439 75.1934 45.2945 74.072 55.1115 74.014C64.9285 73.956 72.8868 74.9884 72.8945 76.3108Z" fill="#92BDDC"/>
<path d="M72.5829 76.3147C72.5829 77.6254 64.7169 78.7351 54.9923 78.7893C45.2676 78.8434 37.3825 77.8265 37.3748 76.5119C37.3671 75.1972 45.2445 74.0952 54.9654 74.0372C64.6862 73.9792 72.5752 75.0116 72.5829 76.3147Z" fill="#91BCDC"/>
<path d="M72.2712 76.3147C72.2712 77.6138 64.4784 78.712 54.8461 78.7661C45.2138 78.8202 37.4017 77.811 37.394 76.5119C37.3864 75.2127 45.1907 74.1185 54.8192 74.0605C64.4476 74.0025 72.2635 75.0116 72.2712 76.3147Z" fill="#90BBDB"/>
<path d="M71.9632 76.3186C71.9632 77.6023 64.2397 78.6926 54.7036 78.7468C45.1675 78.8009 37.4247 77.7995 37.417 76.5119C37.4093 75.2243 45.1367 74.1378 54.6766 74.0837C64.2166 74.0295 71.9632 75.031 71.9632 76.3186Z" fill="#8FBADB"/>
<path d="M71.6515 76.3185C71.6515 77.5945 64.005 78.6694 54.5574 78.7235C45.1098 78.7777 37.444 77.7878 37.4363 76.5119C37.4286 75.2359 45.0829 74.161 54.5304 74.1068C63.978 74.0527 71.6438 75.0464 71.6515 76.3185Z" fill="#8EBADB"/>
<path d="M54.409 78.7032C63.7647 78.6507 71.3433 77.5851 71.3362 76.323C71.3292 75.061 63.7393 74.0805 54.3836 74.133C45.0279 74.1855 37.4493 75.2511 37.4563 76.5131C37.4633 77.7752 45.0533 78.7557 54.409 78.7032Z" fill="#8DB9DA"/>
<path d="M54.2628 78.6847C63.5271 78.6327 71.0316 77.5778 71.0247 76.3286C71.0177 75.0794 63.5019 74.1089 54.2376 74.1608C44.9733 74.2128 37.4688 75.2677 37.4757 76.5169C37.4827 77.7661 44.9985 78.7367 54.2628 78.6847Z" fill="#8BB8DA"/>
<path d="M54.1163 78.6623C63.2892 78.6108 70.7198 77.5668 70.7129 76.3304C70.706 75.094 63.2643 74.1334 54.0914 74.1849C44.9185 74.2363 37.488 75.2804 37.4949 76.5168C37.5017 77.7532 44.9434 78.7138 54.1163 78.6623Z" fill="#8AB8D9"/>
<path d="M53.9738 78.6399C63.0553 78.5889 70.4118 77.554 70.405 76.3282C70.3982 75.1025 63.0307 74.1502 53.9492 74.2011C44.8676 74.2521 37.5111 75.287 37.518 76.5128C37.5248 77.7385 44.8923 78.6909 53.9738 78.6399Z" fill="#89B7D9"/>
<path d="M70.0931 76.3263C70.0931 77.5404 62.8198 78.565 53.8302 78.6153C44.8406 78.6656 37.548 77.726 37.5442 76.5119C37.5403 75.2978 44.8175 74.277 53.8071 74.2229C62.7968 74.1687 70.0893 75.116 70.0931 76.3263Z" fill="#88B6D9"/>
<path d="M69.7851 76.3301C69.7851 77.5288 62.5849 78.5418 53.6876 78.5921C44.7903 78.6423 37.5709 77.7105 37.5632 76.5119C37.5555 75.3132 44.7634 74.2963 53.6607 74.2461C62.558 74.1958 69.7774 75.1276 69.7851 76.3301Z" fill="#87B5D8"/>
<path d="M69.4735 76.3301C69.4735 77.5172 62.3464 78.5225 53.5415 78.5728C44.7366 78.623 37.5903 77.7183 37.5864 76.5119C37.5826 75.3055 44.7096 74.3195 53.5184 74.2693C62.3272 74.219 69.4658 75.1431 69.4735 76.3301Z" fill="#85B5D8"/>
<path d="M69.1618 76.334C69.1618 77.494 62.1079 78.4993 53.3838 78.5495C44.6597 78.5998 37.6057 77.6873 37.6057 76.5119C37.6057 75.3364 44.6597 74.3427 53.3838 74.2924C62.1079 74.2422 69.1541 75.1586 69.1618 76.334Z" fill="#84B4D8"/>
<path d="M68.8499 76.334C68.8499 77.494 61.873 78.48 53.2489 78.5302C44.6249 78.5805 37.6325 77.6757 37.6287 76.5119C37.6248 75.348 44.6056 74.3659 53.2258 74.3157C61.846 74.2654 68.8422 75.1702 68.8499 76.334Z" fill="#83B3D7"/>
<path d="M53.1036 78.5094C61.6346 78.4616 68.5452 77.4897 68.5388 76.3387C68.5324 75.1877 61.6114 74.2935 53.0804 74.3413C44.5493 74.3892 37.6387 75.3611 37.6451 76.5121C37.6515 77.6631 44.5725 78.5573 53.1036 78.5094Z" fill="#82B2D7"/>
<path d="M52.9571 78.4871C61.3968 78.4397 68.2334 77.4786 68.227 76.3405C68.2207 75.2023 61.3739 74.318 52.9342 74.3654C44.4945 74.4127 37.658 75.3738 37.6643 76.512C37.6706 77.6501 44.5174 78.5344 52.9571 78.4871Z" fill="#81B2D6"/>
<path d="M67.9186 76.3379C67.9186 77.4669 61.161 78.4181 52.814 78.4645C44.4671 78.5109 37.6979 77.637 37.6902 76.5119C37.6825 75.3867 44.444 74.4355 52.7909 74.3852C61.1379 74.335 67.9109 75.2127 67.9186 76.3379Z" fill="#7FB1D6"/>
<path d="M67.607 76.3417C67.607 77.4553 60.9263 78.3949 52.6717 78.4413C44.4171 78.4877 37.7134 77.6255 37.7134 76.5119C37.7134 75.3983 44.3979 74.4549 52.6525 74.4085C60.9071 74.3621 67.5993 75.2282 67.607 76.3417Z" fill="#7EB0D6"/>
<path d="M52.5218 78.4238C60.6852 78.378 67.2979 77.4476 67.2918 76.3457C67.2857 75.2438 60.663 74.3877 52.4996 74.4335C44.3362 74.4793 37.7235 75.4097 37.7296 76.5116C37.7357 77.6135 44.3584 78.4696 52.5218 78.4238Z" fill="#7DAFD5"/>
<path d="M66.9835 76.3456C66.9835 77.4321 60.4414 78.3524 52.3792 78.3988C44.317 78.4452 37.7556 77.5984 37.7556 76.5119C37.7556 75.4254 44.2977 74.5013 52.3792 74.4549C60.4606 74.4085 66.9604 75.2552 66.9835 76.3456Z" fill="#7CAFD5"/>
<path d="M66.6718 76.3456C66.6718 77.4205 60.2144 78.333 52.233 78.3755C44.2516 78.4181 37.7788 77.6022 37.7749 76.508C37.7711 75.4137 44.2324 74.5244 52.2137 74.478C60.1951 74.4316 66.668 75.2707 66.6718 76.3456Z" fill="#7AAED4"/>
<path d="M66.3601 76.3495C66.3601 77.4128 59.9797 78.3098 52.0906 78.3562C44.2016 78.4026 37.8019 77.5829 37.7942 76.508C37.7865 75.4331 44.1785 74.5476 52.0676 74.5012C59.9566 74.4549 66.3563 75.2823 66.3601 76.3495Z" fill="#79ADD4"/>
<path d="M51.9402 78.3342C59.7359 78.2905 66.0508 77.4033 66.045 76.3527C66.0392 75.3021 59.7148 74.4858 51.9191 74.5296C44.1234 74.5733 37.8084 75.4605 37.8143 76.5111C37.8201 77.5617 44.1445 78.378 51.9402 78.3342Z" fill="#78ACD4"/>
<path d="M52.1429 78.0872C59.8473 78.0098 66.0846 77.104 66.0742 76.064C66.0639 75.024 59.8098 74.2437 52.1054 74.3211C44.4009 74.3986 38.1637 75.3044 38.174 76.3443C38.1844 77.3843 44.4384 78.1646 52.1429 78.0872Z" fill="#77ACD3"/>
<path d="M51.6515 78.2933C59.2644 78.2506 65.4313 77.3833 65.4256 76.3562C65.4199 75.329 59.2438 74.531 51.6308 74.5737C44.0179 74.6165 37.8511 75.4838 37.8568 76.5109C37.8625 77.538 44.0386 78.336 51.6515 78.2933Z" fill="#75ABD3"/>
<path d="M51.8498 78.0437C59.3714 77.9682 65.4608 77.0846 65.4507 76.0703C65.4406 75.0559 59.3349 74.2949 51.8132 74.3705C44.2916 74.4461 38.2023 75.3296 38.2124 76.3439C38.2225 77.3583 44.3282 78.1193 51.8498 78.0437Z" fill="#74AAD2"/>
<path d="M51.3589 78.2486C58.789 78.2069 64.8078 77.3612 64.8022 76.3597C64.7967 75.3582 58.7688 74.5801 51.3387 74.6218C43.9086 74.6635 37.8898 75.5092 37.8953 76.5107C37.9009 77.5122 43.9287 78.2903 51.3589 78.2486Z" fill="#73A9D2"/>
<path d="M64.4937 76.3572C64.4937 77.347 58.5557 78.1822 51.217 78.2248C43.8783 78.2673 37.9288 77.4978 37.9212 76.508C37.9135 75.5182 43.8706 74.683 51.1824 74.625C58.4942 74.567 64.4898 75.3674 64.4937 76.3572Z" fill="#72A8D2"/>
<path d="M64.1859 76.3611C64.1859 77.3355 58.3211 78.1629 51.0747 78.2054C43.8284 78.248 37.9482 77.4863 37.9443 76.508C37.9405 75.5298 43.8092 74.7062 51.0555 74.6637C58.3019 74.6211 64.1782 75.3983 64.1859 76.3611Z" fill="#70A8D1"/>
<path d="M50.9235 78.1853C58.0774 78.1451 63.8724 77.3301 63.867 76.3649C63.8616 75.3997 58.058 74.6498 50.9041 74.6899C43.7503 74.7301 37.9553 75.5451 37.9606 76.5103C37.966 77.4755 43.7697 78.2254 50.9235 78.1853Z" fill="#6FA7D1"/>
<path d="M63.5624 76.3611C63.5624 77.3161 57.8477 78.1204 50.7822 78.159C43.7167 78.1977 37.9904 77.4592 37.9866 76.508C37.9827 75.5568 43.7013 74.7487 50.7629 74.71C57.8246 74.6714 63.5547 75.3983 63.5624 76.3611Z" fill="#6EA6D0"/>
<path d="M63.2507 76.3649C63.2507 77.3045 57.6091 78.101 50.6398 78.1397C43.6706 78.1784 38.0097 77.4476 38.0059 76.508C38.002 75.5684 43.6475 74.7719 50.6206 74.7332C57.5937 74.6946 63.2469 75.4254 63.2507 76.3649Z" fill="#6CA5D0"/>
<path d="M50.4884 78.122C57.3681 78.0834 62.941 77.2991 62.9358 76.3702C62.9307 75.4413 57.3494 74.7195 50.4697 74.7581C43.59 74.7967 38.0171 75.5811 38.0223 76.51C38.0275 77.4389 43.6087 78.1606 50.4884 78.122Z" fill="#6BA5CF"/>
<path d="M62.6272 76.3688C62.6272 77.2852 57.1357 78.0585 50.3473 78.0972C43.5589 78.1358 38.0327 77.4244 38.0327 76.508C38.0327 75.5916 43.5242 74.8183 50.3126 74.7796C57.1011 74.741 62.6234 75.4524 62.6272 76.3688Z" fill="#6AA4CF"/>
<path d="M62.3156 76.3688C62.3156 77.2736 56.8972 78.0353 50.2011 78.074C43.5051 78.1126 38.0751 77.4089 38.0713 76.5273C38.0674 75.6458 43.4897 74.8608 50.1857 74.8222C56.8818 74.7835 62.3117 75.4679 62.3156 76.3688Z" fill="#68A3CF"/>
<path d="M50.053 78.0548C56.6564 78.0178 62.0055 77.2659 62.0006 76.3754C61.9956 75.4849 56.6385 74.7931 50.0351 74.8302C43.4317 74.8672 38.0826 75.6191 38.0876 76.5096C38.0925 77.4001 43.4496 78.0919 50.053 78.0548Z" fill="#67A2CE"/>
<path d="M61.696 76.3727C61.696 77.2504 56.4238 77.9928 49.9125 78.0314C43.4012 78.0701 38.1174 77.3857 38.0982 76.508C38.079 75.6303 43.3704 74.8879 49.8817 74.8492C56.393 74.8106 61.6921 75.495 61.696 76.3727Z" fill="#66A1CE"/>
<path d="M61.3843 76.3765C61.3843 77.2388 56.1891 77.9734 49.7662 78.0082C43.3434 78.043 38.1367 77.3741 38.1328 76.508C38.129 75.6419 43.328 74.9072 49.7508 74.8724C56.1737 74.8376 61.3804 75.5104 61.3843 76.3765Z" fill="#65A1CD"/>
<path d="M61.0726 76.3765C61.0726 77.231 55.9505 77.9502 49.6239 77.9889C43.2973 78.0276 38.1598 77.3586 38.1521 76.508C38.1444 75.6573 43.2742 74.9304 49.6047 74.8956C55.9351 74.8608 61.0687 75.522 61.0726 76.3765Z" fill="#63A0CD"/>
<path d="M60.761 76.3765C60.761 77.2194 55.7159 77.9232 49.4778 77.9657C43.2397 78.0082 38.1791 77.3316 38.1753 76.5041C38.1714 75.6767 43.2243 74.9575 49.4585 74.9188C55.6928 74.8802 60.7571 75.5375 60.761 76.3765Z" fill="#629FCC"/>
<path d="M49.3291 77.9468C55.4756 77.9123 60.4545 77.2126 60.4499 76.3841C60.4453 75.5555 55.4589 74.9118 49.3125 74.9463C43.166 74.9808 38.1871 75.6805 38.1917 76.509C38.1963 77.3375 43.1827 77.9812 49.3291 77.9468Z" fill="#619ECC"/>
<path d="M60.1413 76.3804C60.1413 77.1963 55.2386 77.8884 49.1852 77.927C43.1318 77.9657 38.2214 77.3277 38.2175 76.508C38.2137 75.6883 43.1164 75.0039 49.1698 74.9614C55.2232 74.9188 60.1336 75.5646 60.1413 76.3804Z" fill="#5F9DCC"/>
<path d="M49.0403 77.9058C55.0018 77.8724 59.831 77.1926 59.8265 76.3876C59.822 75.5825 54.9856 74.957 49.0241 74.9905C43.0625 75.0239 38.2334 75.7037 38.2378 76.5087C38.2423 77.3138 43.0787 77.9393 49.0403 77.9058Z" fill="#5E9CCB"/>
<path d="M48.8938 77.8835C54.764 77.8505 59.5191 77.1816 59.5147 76.3893C59.5103 75.5971 54.748 74.9816 48.8779 75.0145C43.0077 75.0475 38.2526 75.7164 38.257 76.5086C38.2614 77.3009 43.0237 77.9164 48.8938 77.8835Z" fill="#5D9CCB"/>
<path d="M59.2061 76.3881C59.2061 77.1614 54.5304 77.8226 48.7503 77.8574C42.9701 77.8922 38.2829 77.2852 38.2791 76.5041C38.2752 75.7231 42.9547 75.0658 48.7349 75.0348C54.515 75.0039 59.2023 75.6071 59.2061 76.3881Z" fill="#5B9BCA"/>
<path d="M58.8791 76.3881C58.8791 77.1615 54.2612 77.8033 48.5926 77.8342C42.9241 77.8652 38.2907 77.2736 38.2869 76.5041C38.283 75.7347 42.9048 75.089 48.5734 75.058C54.2419 75.0271 58.8791 75.6226 58.8791 76.3881Z" fill="#5A9ACA"/>
<path d="M58.5828 76.3881C58.5828 77.1614 54.0572 77.7801 48.4618 77.8149C42.8664 77.8497 38.3254 77.2581 38.3215 76.5041C38.3177 75.7501 42.851 75.1122 48.4464 75.0812C54.0418 75.0503 58.579 75.6341 58.5828 76.3881Z" fill="#5899C9"/>
<path d="M58.2748 76.392C58.2748 77.1344 53.8185 77.7608 48.3154 77.7917C42.8124 77.8226 38.3483 77.2465 38.3445 76.5041C38.3406 75.7617 42.797 75.1354 48.3 75.1044C53.8031 75.0735 58.2671 75.6496 58.2748 76.392Z" fill="#5798C9"/>
<path d="M57.9632 76.392C57.9632 77.1228 53.5838 77.7414 48.1692 77.7685C42.7547 77.7956 38.3676 77.2349 38.3638 76.5041C38.3599 75.7733 42.7431 75.1585 48.1539 75.1276C53.5646 75.0967 57.9593 75.6612 57.9632 76.392Z" fill="#5697C9"/>
<path d="M57.6514 76.3959C57.6514 77.1112 53.3452 77.7182 48.0307 77.7492C42.7162 77.7801 38.4099 77.2233 38.4099 76.5041C38.4099 75.7849 42.7123 75.1818 48.0307 75.1508C53.349 75.1199 57.6476 75.6767 57.6514 76.3959Z" fill="#5497C8"/>
<path d="M57.3397 76.3959C57.3397 77.1035 53.1065 77.6989 47.8805 77.726C42.6545 77.753 38.4099 77.2079 38.406 76.5041C38.4022 75.8004 42.6391 75.2011 47.8651 75.174C53.0911 75.147 57.3397 75.6922 57.3397 76.3959Z" fill="#5396C8"/>
<path d="M57.028 76.3997C57.028 77.0918 52.8719 77.6757 47.7344 77.7066C42.5969 77.7376 38.4331 77.1962 38.4292 76.5041C38.4254 75.812 42.5854 75.2243 47.7229 75.1972C52.8603 75.1701 57.0242 75.7037 57.028 76.3997Z" fill="#5295C7"/>
<path d="M56.7164 76.3997C56.7164 77.0802 52.6333 77.6564 47.5882 77.6834C42.5431 77.7105 38.4523 77.1846 38.4485 76.5235C38.4446 75.8623 42.5315 75.2668 47.5767 75.2397C52.6218 75.2127 56.7125 75.7192 56.7164 76.3997Z" fill="#5094C7"/>
<path d="M47.442 77.6673C52.3961 77.6395 56.4092 77.0752 56.4055 76.4068C56.4018 75.7384 52.3826 75.2191 47.4285 75.2469C42.4744 75.2747 38.4613 75.8391 38.465 76.5075C38.4687 77.1758 42.4878 77.6951 47.442 77.6673Z" fill="#4F93C6"/>
<path d="M56.0968 76.4036C56.0968 77.057 52.16 77.6138 47.2996 77.6409C42.4392 77.668 38.4832 77.1576 38.4832 76.5041C38.4832 75.8507 42.4161 75.2939 47.2804 75.2668C52.1446 75.2397 56.093 75.7463 56.0968 76.4036Z" fill="#4E92C6"/>
<path d="M55.8004 76.4036C55.8004 77.0493 51.9521 77.5906 47.1687 77.6177C42.3852 77.6448 38.5292 77.146 38.5254 76.5041C38.5215 75.8623 42.3737 75.3171 47.1571 75.29C51.9406 75.263 55.8004 75.7617 55.8004 76.4036Z" fill="#4C92C5"/>
<path d="M55.4733 76.4075C55.4733 77.0377 51.6866 77.5674 47.007 77.5984C42.3275 77.6293 38.5408 77.1344 38.5408 76.5041C38.5408 75.8739 42.3275 75.3441 47.007 75.3132C51.6866 75.2823 55.4694 75.7849 55.4733 76.4075Z" fill="#4B91C5"/>
<path d="M55.1615 76.4075C55.1615 77.0261 51.4518 77.5481 46.8646 77.5674C42.2774 77.5868 38.5561 77.1151 38.5522 76.4964C38.5484 75.8777 42.2659 75.3364 46.853 75.3364C51.4402 75.3364 55.1577 75.785 55.1615 76.4075Z" fill="#4990C5"/>
<path d="M54.8499 76.4113C54.8499 77.0145 51.2133 77.5288 46.7185 77.552C42.2236 77.5752 38.5793 77.1073 38.5754 76.5003C38.5716 75.8932 42.2121 75.3828 46.7069 75.3596C51.2017 75.3364 54.8461 75.8043 54.8499 76.4113Z" fill="#488FC4"/>
<path d="M54.5382 76.4113C54.5382 77.0068 50.9786 77.5056 46.5723 77.5326C42.166 77.5597 38.5986 77.0957 38.5947 76.5003C38.5909 75.9048 42.1583 75.3983 46.5646 75.3983C50.9709 75.3983 54.5382 75.8159 54.5382 76.4113Z" fill="#478EC4"/>
<path d="M54.2302 76.4152C54.2302 76.9952 50.7398 77.4862 46.4297 77.5094C42.1196 77.5326 38.6215 77.0841 38.6177 76.5003C38.6138 75.9164 42.1042 75.4292 46.4182 75.406C50.7321 75.3828 54.2264 75.8313 54.2302 76.4152Z" fill="#458DC3"/>
<path d="M46.2826 77.4921C50.5013 77.4685 53.9188 76.9871 53.9156 76.4169C53.9124 75.8467 50.4899 75.4037 46.2711 75.4274C42.0523 75.4511 38.6349 75.9325 38.6381 76.5026C38.6412 77.0728 42.0638 77.5158 46.2826 77.4921Z" fill="#448CC3"/>
<path d="M53.607 76.4152C53.607 76.972 50.2666 77.4437 46.1374 77.4669C42.0082 77.4901 38.664 77.0571 38.6602 76.5003C38.6563 75.9435 42.0005 75.4756 46.1259 75.4524C50.2512 75.4292 53.6031 75.8584 53.607 76.4152Z" fill="#428CC2"/>
<path d="M53.2952 76.4191C53.2952 76.9642 50.028 77.4244 45.9834 77.4437C41.9388 77.463 38.6716 77.057 38.6716 76.5003C38.6716 75.9435 41.9388 75.4988 45.9834 75.4756C50.028 75.4524 53.2913 75.8739 53.2952 76.4191Z" fill="#418BC2"/>
<path d="M52.9834 76.4191C52.9834 76.9527 49.7932 77.4012 45.8487 77.4244C41.9042 77.4476 38.7024 77.0377 38.7024 76.5003C38.7024 75.9628 41.8926 75.5182 45.8371 75.4988C49.7817 75.4795 52.9796 75.8894 52.9834 76.4191Z" fill="#3F8AC1"/>
<path d="M52.6718 76.4229C52.6718 76.9411 49.5547 77.3819 45.7025 77.4012C41.8504 77.4205 38.7255 77.0145 38.7217 76.5003C38.7178 75.986 41.8388 75.5414 45.691 75.522C49.5431 75.5027 52.6718 75.901 52.6718 76.4229Z" fill="#3E89C1"/>
<path d="M52.3638 76.4229C52.3638 76.9294 49.3198 77.3586 45.5561 77.3818C41.7925 77.405 38.7446 76.9952 38.7446 76.5003C38.7446 76.0053 41.7886 75.5645 45.5484 75.5452C49.3082 75.5259 52.3599 75.9164 52.3638 76.4229Z" fill="#3D88C0"/>
<path d="M52.0521 76.4268C52.0521 76.9217 49.0812 77.3393 45.4138 77.3586C41.7464 77.378 38.7678 76.9952 38.7639 76.5003C38.7601 76.0053 41.7348 75.5878 45.4022 75.5684C49.0697 75.5491 52.0483 75.9319 52.0521 76.4268Z" fill="#3B87C0"/>
<path d="M51.7405 76.4268C51.7405 76.9101 48.8466 77.3161 45.2676 77.3355C41.6887 77.3548 38.7871 76.9836 38.7871 76.5003C38.7871 76.017 41.681 75.611 45.2561 75.5916C48.8312 75.5723 51.7366 75.9435 51.7405 76.4268Z" fill="#3A86C0"/>
<path d="M51.4288 76.4268C51.4288 76.8985 48.608 77.2968 45.1215 77.3161C41.6349 77.3354 38.8102 76.972 38.8064 76.5003C38.8026 76.0285 41.6272 75.6341 45.1138 75.6148C48.6003 75.5955 51.425 75.9589 51.4288 76.4268Z" fill="#3885BF"/>
<path d="M51.1171 76.4307C51.1171 76.8869 48.3694 77.2736 44.9598 77.2929C41.5502 77.3122 38.8025 76.9565 38.8025 76.5003C38.8025 76.044 41.5463 75.6535 44.9405 75.6341C48.3347 75.6148 51.1171 75.9705 51.1171 76.4307Z" fill="#3784BF"/>
<path d="M50.7977 76.4307C50.7977 76.8753 48.1269 77.2543 44.8251 77.2736C41.5233 77.2929 38.8679 76.9449 38.8679 76.5003C38.8679 76.0556 41.5386 75.6767 44.8443 75.6574C48.15 75.638 50.7977 75.986 50.7977 76.4307Z" fill="#3584BE"/>
<path d="M50.4975 76.4345C50.4975 76.8676 47.896 77.231 44.6866 77.2504C41.4771 77.2697 38.8679 76.9449 38.8679 76.5003C38.8679 76.0556 41.4655 75.6999 44.675 75.6805C47.8845 75.6612 50.4936 76.0015 50.4975 76.4345Z" fill="#3483BE"/>
<path d="M50.1856 76.4345C50.1856 76.856 47.6612 77.2078 44.5402 77.2078C41.4192 77.2078 38.8947 76.9024 38.8909 76.4809C38.887 76.0595 41.4154 75.7076 44.5325 75.6844C47.6496 75.6612 50.1818 76.0131 50.1856 76.4345Z" fill="#3282BD"/>
<path d="M49.874 76.4384C49.874 76.8444 47.4226 77.1885 44.3978 77.2117C41.3731 77.2349 38.914 76.9101 38.9102 76.5041C38.9063 76.0981 41.3615 75.7502 44.3901 75.7308C47.4188 75.7115 49.8701 76.0285 49.874 76.4384Z" fill="#3181BD"/>
<path d="M49.5624 76.4384C49.5624 76.8251 47.188 77.1692 44.2517 77.1846C41.3155 77.2001 38.9372 76.8947 38.9334 76.5003C38.9295 76.1059 41.3078 75.7695 44.244 75.7501C47.1803 75.7308 49.5585 76.044 49.5624 76.4384Z" fill="#2F80BC"/>
<path d="M49.2583 76.4384C49.2583 76.8251 46.9493 77.146 44.1131 77.1653C41.2769 77.1846 38.9641 76.8831 38.9602 76.5003C38.9564 76.1175 41.2692 75.7927 44.1054 75.7733C46.9416 75.754 49.2583 76.0556 49.2583 76.4384Z" fill="#2E7FBC"/>
<path d="M48.9389 76.4423C48.9389 76.8289 46.7145 77.1267 43.963 77.1421C41.2115 77.1576 38.9602 76.8715 38.9602 76.5003C38.9602 76.1291 41.1884 75.812 43.9399 75.7966C46.6914 75.7811 48.9389 76.0711 48.9389 76.4423Z" fill="#2C7EBB"/>
<path d="M48.6272 76.4422C48.6272 76.8018 46.476 77.1073 43.8168 77.1189C41.1576 77.1305 38.9987 76.856 38.9949 76.4964C38.991 76.1368 41.1499 75.8352 43.8091 75.8197C46.4683 75.8043 48.6272 76.0865 48.6272 76.4422Z" fill="#2B7DBB"/>
<path d="M48.3194 76.4461C48.3194 76.7903 46.2413 77.0841 43.6707 77.0996C41.1 77.1151 39.0181 76.8444 39.0181 76.4964C39.0181 76.1484 41.0961 75.8584 43.663 75.8429C46.2298 75.8275 48.3156 76.0981 48.3194 76.4461Z" fill="#2A7CBA"/>
<path d="M48.0075 76.4461C48.0075 76.7825 46.0025 77.0648 43.5242 77.0764C41.0459 77.088 39.041 76.8328 39.0371 76.4964C39.0333 76.16 41.0421 75.8816 43.5204 75.8662C45.9987 75.8507 48.0037 76.1136 48.0075 76.4461Z" fill="#287BBA"/>
<path d="M47.6959 76.45C47.6959 76.7709 45.7717 77.0416 43.3819 77.0571C40.9922 77.0725 39.0603 76.8212 39.0603 76.4964C39.0603 76.1716 40.9845 75.9048 43.3742 75.8893C45.764 75.8739 47.692 76.1252 47.6959 76.45Z" fill="#277BB9"/>
<path d="M47.3842 76.45C47.3842 76.7593 45.5293 77.0222 43.2358 77.0338C40.9422 77.0454 39.0834 76.8057 39.0796 76.4964C39.0757 76.1871 40.9345 75.928 43.2281 75.9125C45.5217 75.8971 47.3842 76.1407 47.3842 76.45Z" fill="#257AB9"/>
<path d="M47.0724 76.4539C47.0724 76.7477 45.2906 76.999 43.0894 77.0106C40.8882 77.0222 39.1025 76.7941 39.1025 76.4964C39.1025 76.1987 40.8843 75.9512 43.0855 75.9357C45.2868 75.9203 47.0724 76.1716 47.0724 76.4539Z" fill="#2479B8"/>
<path d="M46.7607 76.4538C46.7607 76.74 45.0559 76.9797 42.947 76.9913C40.8382 77.0029 39.1257 76.7825 39.1218 76.4964C39.118 76.2103 40.8305 75.9705 42.9393 75.9589C45.0482 75.9473 46.7607 76.1716 46.7607 76.4538Z" fill="#2278B8"/>
<path d="M46.4529 76.4539C46.4529 76.7284 44.8174 76.9565 42.8009 76.9681C40.7844 76.9797 39.145 76.7671 39.145 76.4964C39.145 76.2257 40.7767 75.9937 42.7932 75.9821C44.8097 75.9705 46.4491 76.1716 46.4529 76.4539Z" fill="#2177B7"/>
<path d="M46.1413 76.4577C46.1413 76.7168 44.5827 76.9372 42.6547 76.9488C40.7267 76.9604 39.1682 76.7555 39.1643 76.4964C39.1605 76.2373 40.7036 76.017 42.6509 76.0054C44.5981 75.9938 46.1374 76.1987 46.1413 76.4577Z" fill="#1F76B7"/>
<path d="M45.8294 76.4577C45.8294 76.7052 44.344 76.914 42.5083 76.9256C40.6727 76.9372 39.1873 76.7439 39.1873 76.4964C39.1873 76.2489 40.6689 76.0401 42.5045 76.0285C44.3401 76.0169 45.8294 76.2103 45.8294 76.4577Z" fill="#1E75B6"/>
<path d="M45.5178 76.4616C45.5178 76.6936 44.1093 76.8946 42.366 76.9024C40.6227 76.9101 39.2065 76.7322 39.2065 76.5157C39.2065 76.2992 40.6189 76.0827 42.3583 76.0711C44.0977 76.0595 45.5178 76.2257 45.5178 76.4616Z" fill="#1C74B6"/>
<path d="M45.2061 76.4616C45.2061 76.6859 43.8708 76.8715 42.2199 76.8831C40.5689 76.8947 39.2297 76.7168 39.2297 76.4964C39.2297 76.276 40.5651 76.0865 42.216 76.0749C43.8669 76.0633 45.2061 76.2412 45.2061 76.4616Z" fill="#1A73B6"/>
<path d="M44.8942 76.4655C44.8942 76.6743 43.632 76.8521 42.0734 76.8521C40.5149 76.8521 39.2488 76.6975 39.2488 76.4887C39.2488 76.2799 40.511 76.102 42.0696 76.102C43.6281 76.102 44.8942 76.2528 44.8942 76.4655Z" fill="#1972B5"/>
<path d="M44.5865 76.4655C44.5865 76.6627 43.3974 76.8289 41.9311 76.8521C40.4649 76.8753 39.272 76.7052 39.272 76.508C39.272 76.3108 40.4572 76.1213 41.9235 76.1213C43.3897 76.1213 44.5826 76.2683 44.5865 76.4655Z" fill="#1771B5"/>
<path d="M44.2748 76.4655C44.2748 76.651 43.1588 76.8096 41.785 76.8173C40.4111 76.825 39.2913 76.682 39.2913 76.4964C39.2913 76.3108 40.4034 76.1523 41.7811 76.1445C43.1588 76.1368 44.2556 76.2799 44.2748 76.4655Z" fill="#1670B4"/>
<path d="M43.9629 76.4693C43.9629 76.6433 42.9239 76.7903 41.654 76.7941C40.384 76.798 39.345 76.6665 39.345 76.4964C39.345 76.3263 40.3879 76.1755 41.654 76.1677C42.92 76.16 43.9629 76.2953 43.9629 76.4693Z" fill="#146FB4"/>
<path d="M43.6513 76.4693C43.6513 76.6317 42.6854 76.7671 41.4924 76.7748C40.2994 76.7825 39.3335 76.6549 39.3335 76.4964C39.3335 76.3379 40.2994 76.1987 41.4924 76.1909C42.6854 76.1832 43.6513 76.3108 43.6513 76.4693Z" fill="#136EB3"/>
<path d="M43.3396 76.4732C43.3396 76.6201 42.4507 76.7477 41.3501 76.7516C40.2494 76.7555 39.3566 76.6433 39.3528 76.4964C39.3489 76.3495 40.2456 76.2219 41.3462 76.2141C42.4468 76.2064 43.3396 76.3224 43.3396 76.4732Z" fill="#116EB3"/>
<path d="M43.028 76.4732C43.028 76.6085 42.2122 76.7245 41.2039 76.7323C40.1957 76.74 39.376 76.6317 39.376 76.4964C39.376 76.3611 40.1918 76.2451 41.2001 76.2373C42.2083 76.2296 43.028 76.3379 43.028 76.4732Z" fill="#106DB2"/>
<path d="M42.7161 76.4771C42.7161 76.6008 41.9772 76.7052 41.0575 76.7091C40.1378 76.7129 39.3989 76.6163 39.395 76.4925C39.3912 76.3688 40.1378 76.2644 41.0575 76.2605C41.9772 76.2567 42.7161 76.3533 42.7161 76.4771Z" fill="#0E6CB2"/>
<path d="M42.4083 76.4771C42.4083 76.5892 41.7387 76.682 40.9152 76.6859C40.0917 76.6897 39.4182 76.6047 39.4182 76.4925C39.4182 76.3804 40.084 76.2876 40.9114 76.2837C41.7387 76.2799 42.4045 76.3649 42.4083 76.4771Z" fill="#0D6BB1"/>
<path d="M42.0967 76.4771C42.0967 76.5776 41.5002 76.6627 40.769 76.6665C40.0378 76.6704 39.4375 76.5931 39.4375 76.4925C39.4375 76.392 40.034 76.3108 40.7652 76.3069C41.4963 76.3031 42.0967 76.3804 42.0967 76.4771Z" fill="#0B6AB1"/>
<path d="M41.7848 76.4809C41.7848 76.566 41.2653 76.6395 40.6303 76.6433C39.9954 76.6472 39.4758 76.5815 39.4758 76.4925C39.4758 76.4036 39.9954 76.334 40.6303 76.3301C41.2653 76.3263 41.7848 76.3959 41.7848 76.4809Z" fill="#0969B0"/>
<path d="M41.4732 76.4809C41.4732 76.5583 41.0268 76.6201 40.4764 76.624C39.9261 76.6279 39.4797 76.566 39.4797 76.4925C39.4797 76.4191 39.9261 76.3572 40.4764 76.3533C41.0268 76.3495 41.4732 76.4075 41.4732 76.4809Z" fill="#0868B0"/>
<path d="M41.1769 76.4848C41.1769 76.5467 40.7921 76.5969 40.3495 76.6008C39.907 76.6047 39.5183 76.5544 39.5183 76.4925C39.5183 76.4307 39.9031 76.3804 40.3457 76.3765C40.7882 76.3727 41.1769 76.4229 41.1769 76.4848Z" fill="#0667AF"/>
<path d="M40.8499 76.4848C40.8499 76.5351 40.5536 76.5776 40.188 76.5776C39.8224 76.5776 39.5222 76.5428 39.5222 76.4925C39.5222 76.4423 39.8185 76.4036 40.188 76.3997C40.5574 76.3959 40.8499 76.4345 40.8499 76.4848Z" fill="#0566AF"/>
<path d="M40.5419 76.4887C40.3831 76.5521 40.2115 76.576 40.0416 76.5583C39.7684 76.5583 39.5452 76.5312 39.5452 76.4925C39.702 76.4272 39.8729 76.4033 40.0416 76.4229C40.3187 76.4229 40.5419 76.45 40.5419 76.4887Z" fill="#0365AE"/>
<path d="M40.2302 76.4887C40.1256 76.532 40.0117 76.548 39.8993 76.5351C39.7859 76.5484 39.671 76.5338 39.5645 76.4925C39.6691 76.4492 39.783 76.4333 39.8954 76.4461C40.0088 76.4329 40.1237 76.4474 40.2302 76.4887Z" fill="#0264AE"/>
<path d="M39.9184 76.4925C39.9184 76.4925 39.8452 76.4925 39.7529 76.5157C39.6605 76.5389 39.5874 76.5157 39.5874 76.4925C39.5874 76.4693 39.6605 76.4693 39.7529 76.4693C39.8452 76.4693 39.9184 76.4771 39.9184 76.4925Z" fill="#0063AD"/>
</g>
</g>
<g opacity="0.5">
<path d="M0.56191 26.7258L0.60809 26.6407L0.642724 26.5789L0.677359 26.517C1.05562 25.7876 1.65551 25.1984 2.38985 24.835L2.58227 24.75L26.2108 14.3991L49.8394 4.04445L50.0357 3.95938C50.3265 3.81483 50.6502 3.75014 50.9739 3.77187C51.2977 3.7936 51.6099 3.90098 51.879 4.08311L51.9214 4.11404L51.9637 4.14111L54.6998 6.18653L52.9296 6.71239L55.2771 38.5846C55.3179 39.4437 55.1108 40.2963 54.6806 41.0399L54.6421 41.1056L54.6113 41.1636C54.2331 41.893 53.6332 42.4822 52.8988 42.8456L5.77251 63.4776L5.95723 65.4844L3.36732 63.5511L3.32499 63.5202C3.04852 63.3092 2.82294 63.0384 2.66503 62.7278C2.50713 62.4172 2.42096 62.0748 2.41294 61.7261L5.78295e-05 29.096C-0.036982 28.2687 0.157674 27.4475 0.56191 26.7258Z" fill="white"/>
<path d="M7.93917 65.7048L55.5888 44.8253C57.0281 44.195 58.0864 42.1805 57.9479 40.3323L55.5811 8.16235C55.4426 6.31413 54.165 5.32428 52.7257 5.95453L5.07603 26.8341C3.63677 27.4527 2.57849 29.4788 2.71702 31.3193L5.08373 63.4854C5.22227 65.3452 6.49991 66.3389 7.93917 65.7048Z" fill="url(#paint0_linear_151_121)"/>
<path d="M5.27214 26.749L28.9007 16.3982L31.6869 54.2094L8.13528 65.6197C6.59596 66.3002 5.22981 65.4535 5.10282 63.729L2.69378 31.0989C2.66386 30.2019 2.89093 29.3151 3.348 28.544C3.80507 27.7729 4.47292 27.1499 5.27214 26.749Z" fill="url(#paint1_linear_151_121)"/>
<path d="M52.5295 6.04348L28.9009 16.3982L31.6678 53.9736L55.3926 44.9142C56.1911 44.5138 56.8583 43.8913 57.3147 43.1208C57.7711 42.3503 57.9976 41.4643 57.9671 40.5682L55.5619 7.93423C55.4349 6.21361 54.0765 5.36682 52.5295 6.04348Z" fill="url(#paint2_linear_151_121)"/>
<path d="M57.4129 42.9384C56.9749 43.8029 56.2645 44.4976 55.3926 44.9142L8.13541 65.6197C7.79413 65.7972 7.4113 65.8784 7.02773 65.8546C6.64415 65.8307 6.2742 65.7028 5.95728 65.4844L29.9745 30.9326L57.4129 42.9384Z" fill="url(#paint3_linear_151_121)"/>
<path d="M3.25195 28.7248C3.69233 27.862 4.40199 27.168 5.27231 26.749L52.5295 6.04346C52.871 5.8661 53.2541 5.78535 53.6377 5.80987C54.0214 5.83439 54.3912 5.96325 54.7076 6.18266L30.6942 40.719L3.25195 28.7248Z" fill="url(#paint4_linear_151_121)"/>
<path d="M13.4037 32.9316C13.4037 32.9007 13.4307 32.8698 13.446 32.835C13.4579 32.8138 13.4682 32.7919 13.4768 32.7692L13.5115 32.6958C13.8612 31.8859 14.4583 31.2089 15.2163 30.7625L15.4164 30.6542L39.9993 17.5813L64.5823 4.50842L64.7863 4.40402C65.0886 4.22632 65.4326 4.13266 65.783 4.13266C66.1333 4.13266 66.4773 4.22632 66.7797 4.40402L66.8258 4.43109L66.872 4.45816L69.9815 6.41851L68.115 7.09516L73.2256 41.1945C73.3414 42.1211 73.1863 43.0616 72.7792 43.9011C72.7673 43.9236 72.757 43.9468 72.7484 43.9707L72.7138 44.0403C72.3663 44.8516 71.7687 45.5294 71.009 45.9736L21.9893 72.046L22.351 74.188L19.4071 72.3244L19.3609 72.2973C19.0451 72.0942 18.7795 71.8215 18.5841 71.5C18.3887 71.1784 18.2688 70.8164 18.2333 70.4413L12.9996 35.53C12.89 34.643 13.03 33.7428 13.4037 32.9316Z" fill="white"/>
<path d="M24.5022 74.2654L74.0721 47.903C75.573 47.1065 76.5466 44.8562 76.2503 42.8765L71.0936 8.46394C70.7972 6.48425 69.3387 5.52533 67.8417 6.32185L18.2718 32.6803C16.7709 33.4768 15.7973 35.7272 16.0936 37.7069L21.2504 72.1194C21.5505 74.103 23.0052 75.0619 24.5022 74.2654Z" fill="url(#paint5_linear_151_121)"/>
<path d="M18.4719 32.5721L43.0548 19.4992L49.1198 59.9552L24.7061 74.1571C23.0937 75.0155 21.5659 74.2151 21.2888 72.3708L16.0551 37.4594C15.9502 36.4978 16.1221 35.5262 16.5505 34.6598C16.9789 33.7935 17.6457 33.0689 18.4719 32.5721Z" fill="url(#paint6_linear_151_121)"/>
<path d="M67.6379 6.42625L43.0549 19.4992L49.0814 59.7116L73.8875 48.0113C74.7137 47.5145 75.3805 46.7899 75.8089 45.9236C76.2373 45.0572 76.4092 44.0856 76.3043 43.124L71.0706 8.21261C70.7781 6.36825 69.2696 5.56787 67.6379 6.42625Z" fill="url(#paint7_linear_151_121)"/>
<path d="M75.8848 45.7184C75.4826 46.684 74.7754 47.4897 73.8721 48.0113L24.7062 74.1571C24.3534 74.3766 23.9478 74.4954 23.5329 74.5008C23.118 74.5063 22.7095 74.3982 22.3511 74.1881L45.4101 35.066L75.8848 45.7184Z" fill="url(#paint8_linear_151_121)"/>
<path d="M16.4592 34.865C16.8604 33.8988 17.5679 33.0928 18.4719 32.5721L67.6378 6.42627C67.9906 6.20683 68.3962 6.08801 68.8111 6.08256C69.226 6.07711 69.6346 6.18524 69.993 6.39534L46.9493 45.5174L16.4592 34.865Z" fill="url(#paint9_linear_151_121)"/>
</g>
<path d="M26.996 32.7847C26.996 32.7499 27.0229 32.7151 27.0383 32.6803C27.0469 32.6552 27.0572 32.6306 27.0691 32.6069L27.0999 32.5295C27.4372 31.6462 28.0467 30.8944 28.8393 30.3836L29.051 30.2637L54.7268 15.3619L80.4027 0.463982L80.6144 0.340251C80.9283 0.13689 81.2903 0.020803 81.6635 0.00382204C82.0367 -0.0131589 82.4076 0.0695735 82.7386 0.243587L82.7887 0.270653L82.8387 0.297719L86.229 2.26194L84.2779 3.09326L91.0587 39.2148C91.212 40.1947 91.0783 41.1983 90.6738 42.1032L90.6392 42.1805C90.6305 42.2044 90.6203 42.2276 90.6084 42.2501C90.2746 43.1355 89.6643 43.8884 88.869 44.3961L37.675 74.1146L38.1445 76.3804L34.935 74.5128L34.885 74.4858C34.541 74.2812 34.2477 74.001 34.0271 73.6661C33.8065 73.3313 33.6643 72.9505 33.6112 72.5525L26.6689 35.5725C26.5141 34.6309 26.6275 33.6644 26.996 32.7847Z" fill="white"/>
<path d="M40.4419 76.3804L92.217 46.3332C93.7833 45.4246 94.73 42.9886 94.3374 40.8891L87.4951 4.43109C87.1103 2.33154 85.5094 1.36876 83.947 2.27741L32.1719 32.3207C30.6057 33.2294 29.6552 35.6692 30.0477 37.7649L36.8938 74.2383C37.2863 76.3224 38.868 77.2891 40.4419 76.3804Z" fill="url(#paint10_linear_151_121)"/>
<path d="M32.3836 32.197L58.0594 17.2991L66.1024 60.1562L40.6536 76.2567C38.968 77.2311 37.3094 76.4423 36.9438 74.4897L30.0168 37.5058C29.632 35.5493 30.698 33.1752 32.3836 32.197Z" fill="url(#paint11_linear_151_121)"/>
<path d="M83.7352 2.39728L58.0593 17.2991L66.0523 59.8895L92.0052 46.457C93.6869 45.4787 94.7529 43.1046 94.3873 41.152L87.4604 4.16431C87.0794 2.21168 85.4323 1.4229 83.7352 2.39728Z" fill="url(#paint12_linear_151_121)"/>
<path d="M94.0604 43.9321C93.6697 44.9775 92.9475 45.8647 92.0054 46.457L40.6536 76.2567C40.2856 76.5032 39.8579 76.6449 39.4161 76.6667C38.9743 76.6884 38.5348 76.5895 38.1445 76.3804L61.1535 33.79L94.0604 43.9321Z" fill="url(#paint13_linear_151_121)"/>
<path d="M30.3247 34.7219C30.7154 33.6753 31.4392 32.7878 32.3835 32.197L83.7353 2.39728C84.1026 2.15071 84.5297 2.00897 84.9709 1.98718C85.4121 1.96539 85.8509 2.06436 86.2405 2.27355L63.2315 44.8523L30.3247 34.7219Z" fill="url(#paint14_linear_151_121)"/>
<defs>
<linearGradient id="paint0_linear_151_121" x1="60.0396" y1="24.5733" x2="5.53354" y2="28.6675" gradientUnits="userSpaceOnUse">
<stop stop-color="#7BDAFF"/>
<stop offset="1" stop-color="#59BDEF"/>
</linearGradient>
<linearGradient id="paint1_linear_151_121" x1="-2.69661" y1="89.2715" x2="30.2253" y2="41.3109" gradientUnits="userSpaceOnUse">
<stop offset="0.77" stop-color="#59BDEF"/>
<stop offset="0.85" stop-color="#55B8EB"/>
<stop offset="0.93" stop-color="#49ABE1"/>
<stop offset="1" stop-color="#3A9BD5"/>
</linearGradient>
<linearGradient id="paint2_linear_151_121" x1="65.0929" y1="53.7428" x2="29.0484" y2="33.4587" gradientUnits="userSpaceOnUse">
<stop offset="0.77" stop-color="#59BDEF"/>
<stop offset="0.85" stop-color="#55B8EB"/>
<stop offset="0.93" stop-color="#49ABE1"/>
<stop offset="1" stop-color="#3A9BD5"/>
</linearGradient>
<linearGradient id="paint3_linear_151_121" x1="37.8707" y1="94.3266" x2="16.1555" y2="44.4977" gradientUnits="userSpaceOnUse">
<stop offset="0.77" stop-color="#3A9BD5"/>
<stop offset="0.84" stop-color="#3896D2"/>
<stop offset="0.92" stop-color="#3189C9"/>
<stop offset="1" stop-color="#2573BA"/>
</linearGradient>
<linearGradient id="paint4_linear_151_121" x1="49.1504" y1="0.722353" x2="-5.21965" y2="33.0928" gradientUnits="userSpaceOnUse">
<stop stop-color="#7BDAFF"/>
<stop offset="1" stop-color="#59BDEF"/>
</linearGradient>
<linearGradient id="paint5_linear_151_121" x1="76.7172" y1="27.6325" x2="18.4415" y2="36.4706" gradientUnits="userSpaceOnUse">
<stop stop-color="#7BDAFF"/>
<stop offset="1" stop-color="#59BDEF"/>
</linearGradient>
<linearGradient id="paint6_linear_151_121" x1="14.5089" y1="102.202" x2="46.0136" y2="48.0112" gradientUnits="userSpaceOnUse">
<stop offset="0.77" stop-color="#59BDEF"/>
<stop offset="0.85" stop-color="#55B8EB"/>
<stop offset="0.93" stop-color="#49ABE1"/>
<stop offset="1" stop-color="#3A9BD5"/>
</linearGradient>
<linearGradient id="paint7_linear_151_121" x1="86.6286" y1="53.5909" x2="46.2159" y2="34.6875" gradientUnits="userSpaceOnUse">
<stop offset="0.77" stop-color="#59BDEF"/>
<stop offset="0.85" stop-color="#55B8EB"/>
<stop offset="0.93" stop-color="#49ABE1"/>
<stop offset="1" stop-color="#3A9BD5"/>
</linearGradient>
<linearGradient id="paint8_linear_151_121" x1="58.549" y1="104.381" x2="31.2013" y2="52.5363" gradientUnits="userSpaceOnUse">
<stop offset="0.77" stop-color="#3A9BD5"/>
<stop offset="0.84" stop-color="#3896D2"/>
<stop offset="0.92" stop-color="#3189C9"/>
<stop offset="1" stop-color="#2573BA"/>
</linearGradient>
<linearGradient id="paint9_linear_151_121" x1="63.0671" y1="2.87273" x2="7.26445" y2="42.0754" gradientUnits="userSpaceOnUse">
<stop stop-color="#7BDAFF"/>
<stop offset="1" stop-color="#59BDEF"/>
</linearGradient>
<linearGradient id="paint10_linear_151_121" x1="89.3105" y1="24.1769" x2="27.8267" y2="35.9448" gradientUnits="userSpaceOnUse">
<stop stop-color="#7BDAFF"/>
<stop offset="1" stop-color="#59BDEF"/>
</linearGradient>
<linearGradient id="paint11_linear_151_121" x1="26.3738" y1="106.007" x2="57.598" y2="47.1327" gradientUnits="userSpaceOnUse">
<stop offset="0.77" stop-color="#59BDEF"/>
<stop offset="0.85" stop-color="#55B8EB"/>
<stop offset="0.93" stop-color="#49ABE1"/>
<stop offset="1" stop-color="#3A9BD5"/>
</linearGradient>
<linearGradient id="paint12_linear_151_121" x1="113.595" y1="53.7741" x2="69.9345" y2="35.4075" gradientUnits="userSpaceOnUse">
<stop offset="0.77" stop-color="#59BDEF"/>
<stop offset="0.85" stop-color="#55B8EB"/>
<stop offset="0.93" stop-color="#49ABE1"/>
<stop offset="1" stop-color="#3A9BD5"/>
</linearGradient>
<linearGradient id="paint13_linear_151_121" x1="73.1913" y1="106.469" x2="41.9615" y2="52.5928" gradientUnits="userSpaceOnUse">
<stop offset="0.77" stop-color="#3A9BD5"/>
<stop offset="0.84" stop-color="#3896D2"/>
<stop offset="0.92" stop-color="#3189C9"/>
<stop offset="1" stop-color="#2573BA"/>
</linearGradient>
<linearGradient id="paint14_linear_151_121" x1="73.8081" y1="-1.55301" x2="16.1521" y2="42.3676" gradientUnits="userSpaceOnUse">
<stop stop-color="#7BDAFF"/>
<stop offset="1" stop-color="#59BDEF"/>
</linearGradient>
</defs>
</svg>
